<svg width="444" height="91" viewBox="0 0 444 91" fill="none" xmlns="http://www.w3.org/2000/svg">
<path d="M43.7812 65.2031C43.5859 63.8685 42.9837 63.2012 41.9746 63.2012C41.6165 63.2012 41.1771 63.2988 40.6562 63.4941C39.6471 63.9499 38.4753 64.4707 37.1406 65.0566C35.806 65.6426 34.5202 66.196 33.2832 66.7168C32.0462 67.2702 30.9557 67.7259 30.0117 68.084C29.1003 68.4421 28.5632 68.6211 28.4004 68.6211C27.9121 68.6211 27.4564 68.4583 27.0332 68.1328C26.61 67.8398 26.2357 67.4492 25.9102 66.9609C25.6172 66.4727 25.373 65.9193 25.1777 65.3008C24.9824 64.6823 24.8848 64.0801 24.8848 63.4941C24.8848 62.8431 25.015 62.2409 25.2754 61.6875C25.5358 61.1341 25.9753 60.7109 26.5938 60.418C28.8073 59.3112 31.0371 58.2695 33.2832 57.293C35.5618 56.3164 37.8568 55.3561 40.168 54.4121C41.3724 53.9238 41.9746 53.0124 41.9746 51.6777L41.291 44.5C41.0957 43.2305 40.6237 42.5957 39.875 42.5957C39.3542 42.5957 38.7845 43.0026 38.166 43.8164C35.1387 47.7227 31.8997 50.5872 28.4492 52.4102C25.0312 54.2005 21.304 55.0957 17.2676 55.0957C14.8587 55.0957 12.6289 54.7539 10.5781 54.0703C8.5599 53.3867 6.81836 52.4427 5.35352 51.2383C3.88867 50.0339 2.73307 48.6016 1.88672 46.9414C1.07292 45.2487 0.666016 43.4095 0.666016 41.4238C0.666016 39.2103 1.12174 37.0944 2.0332 35.0762C2.94466 33.0579 4.18164 31.1862 5.74414 29.4609C7.30664 27.7357 9.11328 26.1732 11.1641 24.7734C13.2474 23.3411 15.4284 22.1204 17.707 21.1113C20.0182 20.1022 22.362 19.3372 24.7383 18.8164C27.1471 18.263 29.4583 17.9863 31.6719 17.9863C34.0156 17.9863 35.985 18.1165 37.5801 18.377C39.2077 18.6374 40.5423 18.9141 41.584 19.207C42.0397 18.6536 42.4954 18.2467 42.9512 17.9863C43.4395 17.7259 43.9115 17.5957 44.3672 17.5957C44.9857 17.5957 45.6367 17.7096 46.3203 17.9375C47.0365 18.1328 47.6875 18.4095 48.2734 18.7676C48.8919 19.1257 49.3965 19.5326 49.7871 19.9883C50.1777 20.444 50.373 20.916 50.373 21.4043C50.373 21.7624 50.3079 22.1042 50.1777 22.4297C50.0475 22.7552 49.901 23.0807 49.7383 23.4062C49.6081 23.6992 49.4779 24.0247 49.3477 24.3828C49.25 24.7409 49.2012 25.1152 49.2012 25.5059C49.2012 26.2871 49.2663 27.4753 49.3965 29.0703C49.5592 30.6654 49.7546 32.4883 49.9824 34.5391C50.2428 36.5573 50.5033 38.6895 50.7637 40.9355C51.0566 43.1816 51.3333 45.3301 51.5938 47.3809C51.7891 48.7806 52.4564 49.4805 53.5957 49.4805C53.6934 49.4805 53.8236 49.4642 53.9863 49.4316C54.1491 49.3991 54.3118 49.3503 54.4746 49.2852C55.7441 48.9271 57.0625 48.569 58.4297 48.2109C59.7969 47.8203 61.0664 47.4785 62.2383 47.1855C63.4427 46.8926 64.4681 46.6647 65.3145 46.502C66.1608 46.3066 66.7142 46.209 66.9746 46.209C68.0163 46.209 68.7975 46.5833 69.3184 47.332C69.8392 48.0807 70.0996 49.1061 70.0996 50.4082C70.0996 51.4173 69.9206 52.3613 69.5625 53.2402C69.2044 54.1191 68.6836 54.64 68 54.8027C65.7539 55.291 63.5729 55.8281 61.457 56.4141C59.3411 56.9674 57.209 57.5697 55.0605 58.2207C53.791 58.6113 53.1562 59.4414 53.1562 60.7109L55.6953 81.3164C55.6953 82.0326 55.4674 82.6999 55.0117 83.3184C54.5885 83.9368 54.0352 84.474 53.3516 84.9297C52.668 85.3854 51.903 85.7435 51.0566 86.0039C50.2103 86.2643 49.3802 86.3945 48.5664 86.3945C47.8177 86.3945 47.1992 86.1829 46.7109 85.7598C46.2227 85.3691 45.946 84.8483 45.8809 84.1973C45.5879 81.0397 45.2461 77.8984 44.8555 74.7734C44.4974 71.6484 44.1393 68.4583 43.7812 65.2031ZM19.3672 46.0137C20.9948 46.0137 22.5736 45.7858 24.1035 45.3301C25.666 44.8418 27.1797 44.0117 28.6445 42.8398C30.1419 41.668 31.6068 40.0892 33.0391 38.1035C34.4714 36.0853 35.8874 33.5462 37.2871 30.4863C37.3848 30.2259 37.4661 29.9818 37.5312 29.7539C37.6289 29.526 37.6777 29.3145 37.6777 29.1191C37.6777 28.0449 37.043 27.4102 35.7734 27.2148C34.6992 27.0195 33.4622 26.9219 32.0625 26.9219C29.3932 26.9219 26.7728 27.2799 24.2012 27.9961C21.6296 28.7122 19.3346 29.6562 17.3164 30.8281C15.2982 32 13.6706 33.3346 12.4336 34.832C11.1966 36.3294 10.5781 37.8594 10.5781 39.4219C10.5781 41.5703 11.3268 43.2142 12.8242 44.3535C14.3216 45.4603 16.5026 46.0137 19.3672 46.0137Z" fill="#4E4C4C"/>
<path d="M72.1504 39.7148C72.1504 44.0768 72.8177 47.446 74.1523 49.8223C75.487 52.1986 77.4238 53.3867 79.9629 53.3867C81.5579 53.3867 83.0228 52.9147 84.3574 51.9707C85.7246 51.0267 86.8965 49.7083 87.873 48.0156C88.8496 46.3229 89.5983 44.321 90.1191 42.0098C90.6725 39.666 90.9492 37.127 90.9492 34.3926C90.9492 32.7324 90.8841 31.3001 90.7539 30.0957C90.6237 28.8587 90.4772 27.7682 90.3145 26.8242C90.1842 25.8477 90.054 24.985 89.9238 24.2363C89.7936 23.4876 89.7285 22.7715 89.7285 22.0879C89.7285 21.0462 90.168 20.2975 91.0469 19.8418C91.9258 19.3535 93.3255 19.1094 95.2461 19.1094C97.6875 19.1094 99.5755 19.6628 100.91 20.7695C102.277 21.8763 102.961 23.4876 102.961 25.6035C102.961 31.3652 102.391 36.541 101.252 41.1309C100.145 45.7207 98.5339 49.627 96.418 52.8496C94.3346 56.0397 91.7956 58.4974 88.8008 60.2227C85.806 61.9479 82.4531 62.8105 78.7422 62.8105C76.1055 62.8105 73.6641 62.2572 71.418 61.1504C69.2044 60.0762 67.2839 58.5625 65.6562 56.6094C64.0612 54.6237 62.8079 52.2799 61.8965 49.5781C60.985 46.8438 60.5293 43.849 60.5293 40.5938C60.5293 39.3568 60.5618 38.0384 60.627 36.6387C60.6921 35.2389 60.7897 33.7415 60.9199 32.1465C61.0501 30.5189 61.2129 28.7611 61.4082 26.873C61.6361 24.985 61.8802 22.9342 62.1406 20.7207C62.2383 19.7767 62.6777 19.028 63.459 18.4746C64.2728 17.8887 65.2982 17.5957 66.5352 17.5957C67.6419 17.5957 68.6836 17.7096 69.6602 17.9375C70.6367 18.1654 71.4668 18.4746 72.1504 18.8652C72.8665 19.2559 73.4199 19.7116 73.8105 20.2324C74.2337 20.7533 74.4453 21.3066 74.4453 21.8926C74.4453 22.4785 74.3151 23.4062 74.0547 24.6758C73.8268 25.9128 73.5664 27.3451 73.2734 28.9727C73.013 30.5677 72.7526 32.3092 72.4922 34.1973C72.2643 36.0527 72.1504 37.8919 72.1504 39.7148ZM150.422 46.3066C151.366 45.4928 152.294 45.0859 153.205 45.0859C153.726 45.0859 154.198 45.2161 154.621 45.4766C155.044 45.737 155.516 46.1439 156.037 46.6973C156.525 47.446 156.867 48.0645 157.062 48.5527C157.29 49.0085 157.404 49.4642 157.404 49.9199C157.404 50.8965 156.916 51.8242 155.939 52.7031C154.377 54.0052 152.684 55.1771 150.861 56.2188C149.038 57.2279 147.134 58.0905 145.148 58.8066C143.163 59.5228 141.112 60.0599 138.996 60.418C136.88 60.8086 134.781 61.0039 132.697 61.0039C130.061 61.0039 127.587 60.6621 125.275 59.9785C122.964 59.3275 120.897 58.3835 119.074 57.1465C117.284 55.9095 115.77 54.4284 114.533 52.7031C113.296 50.9453 112.417 48.9759 111.896 46.7949C111.604 45.8835 111.327 45.2975 111.066 45.0371C110.839 44.7441 110.448 44.5977 109.895 44.5977C108.69 44.5977 107.762 44.3047 107.111 43.7188C106.46 43.1328 106.135 42.2865 106.135 41.1797C106.135 40.724 106.167 40.431 106.232 40.3008L106.33 39.3242C106.493 38.1523 106.802 37.306 107.258 36.7852C107.746 36.2643 108.495 36.0039 109.504 36.0039H110.236C111.604 36.0039 112.564 35.3691 113.117 34.0996C114.126 31.8535 115.412 29.8027 116.975 27.9473C118.537 26.0918 120.295 24.513 122.248 23.2109C124.201 21.8763 126.285 20.8509 128.498 20.1348C130.744 19.3861 133.023 19.0117 135.334 19.0117C137.743 19.0117 139.989 19.3698 142.072 20.0859C144.188 20.7695 146.027 21.7298 147.59 22.9668C149.152 24.2038 150.373 25.6523 151.252 27.3125C152.163 28.9727 152.619 30.763 152.619 32.6836C152.619 34.0182 152.359 35.2389 151.838 36.3457C151.317 37.4525 150.568 38.429 149.592 39.2754C148.615 40.0892 147.427 40.7565 146.027 41.2773C144.66 41.7982 143.098 42.14 141.34 42.3027L124.396 44.0117C123.745 44.0117 123.208 44.1745 122.785 44.5C122.395 44.8255 122.199 45.265 122.199 45.8184C122.199 46.6647 122.508 47.4785 123.127 48.2598C123.778 49.041 124.624 49.7409 125.666 50.3594C126.74 50.9453 127.961 51.4173 129.328 51.7754C130.728 52.1335 132.16 52.3125 133.625 52.3125C135.025 52.3125 136.457 52.1823 137.922 51.9219C139.419 51.6289 140.884 51.222 142.316 50.7012C143.781 50.1803 145.197 49.5618 146.564 48.8457C147.932 48.097 149.217 47.2507 150.422 46.3066ZM139.533 33.709C140.021 33.6113 140.445 33.3835 140.803 33.0254C141.161 32.6348 141.34 32.1628 141.34 31.6094C141.34 31.1211 141.161 30.6654 140.803 30.2422C140.445 29.819 139.956 29.4447 139.338 29.1191C138.719 28.7611 138.003 28.4844 137.189 28.2891C136.376 28.0938 135.513 27.9961 134.602 27.9961C133.267 27.9961 131.9 28.1914 130.5 28.582C129.1 28.9727 127.831 29.4935 126.691 30.1445C125.552 30.763 124.624 31.4629 123.908 32.2441C123.192 32.9928 122.834 33.7415 122.834 34.4902C122.834 35.2389 123.29 35.6133 124.201 35.6133C124.755 35.6133 125.65 35.5482 126.887 35.418C128.124 35.2878 129.491 35.1413 130.988 34.9785C132.486 34.7832 133.999 34.5716 135.529 34.3438C137.059 34.1159 138.394 33.9043 139.533 33.709ZM186.994 20.4766C185.79 20.4766 184.732 20.8021 183.82 21.4531C182.909 22.0716 182.128 22.9505 181.477 24.0898C180.826 25.1966 180.288 26.515 179.865 28.0449C179.442 29.5423 179.1 31.1862 178.84 32.9766C178.579 34.7669 178.4 36.6387 178.303 38.5918C178.205 40.5449 178.156 42.5143 178.156 44.5C178.156 47.1042 178.254 49.6758 178.449 52.2148C178.677 54.7214 178.791 57.0488 178.791 59.1973C178.791 60.597 178.27 61.6875 177.229 62.4688C176.187 63.2826 174.706 63.6895 172.785 63.6895C172.427 63.6895 172.02 63.6569 171.564 63.5918C171.109 63.5267 170.669 63.3965 170.246 63.2012C169.855 63.0059 169.497 62.7292 169.172 62.3711C168.879 62.0456 168.716 61.5898 168.684 61.0039C168.391 58.1393 167.967 55.2096 167.414 52.2148C166.861 49.2201 166.161 46.2415 165.314 43.2793C164.501 40.2845 163.508 37.3223 162.336 34.3926C161.197 31.4629 159.878 28.5983 158.381 25.7988C158.12 25.3105 157.893 24.8548 157.697 24.4316C157.535 24.0085 157.453 23.6016 157.453 23.2109C157.453 22.7227 157.665 22.2018 158.088 21.6484C158.544 21.0625 159.097 20.5254 159.748 20.0371C160.432 19.5488 161.164 19.1582 161.945 18.8652C162.759 18.5397 163.54 18.377 164.289 18.377C165.526 18.377 166.617 19.2396 167.561 20.9648C168.505 22.6576 169.383 25.3757 170.197 29.1191C170.36 29.7702 170.49 30.2259 170.588 30.4863C170.686 30.7467 170.816 30.877 170.979 30.877C171.337 30.877 171.564 30.3236 171.662 29.2168C172.053 26.1243 172.72 23.4714 173.664 21.2578C174.608 19.0117 175.78 17.1725 177.18 15.7402C178.612 14.2754 180.24 13.2012 182.062 12.5176C183.918 11.834 185.952 11.4922 188.166 11.4922C189.436 11.4922 190.721 11.6061 192.023 11.834C193.326 12.0618 194.497 12.4036 195.539 12.8594C196.581 13.3151 197.427 13.8685 198.078 14.5195C198.729 15.1706 199.055 15.903 199.055 16.7168C199.055 17.3027 198.924 18.0026 198.664 18.8164C198.436 19.5977 198.127 20.3626 197.736 21.1113C197.346 21.8275 196.89 22.446 196.369 22.9668C195.881 23.4551 195.376 23.6992 194.855 23.6992C194.27 23.6992 193.7 23.5365 193.146 23.2109C192.593 22.8529 191.991 22.4785 191.34 22.0879C190.721 21.6973 190.054 21.3392 189.338 21.0137C188.654 20.6556 187.873 20.4766 186.994 20.4766ZM223.34 58.3184C221.387 58.3184 219.434 57.8464 217.48 56.9023C215.527 55.9258 213.656 54.6074 211.865 52.9473C210.075 51.2871 208.415 49.334 206.885 47.0879C205.355 44.8092 204.02 42.3678 202.881 39.7637C201.742 37.127 200.846 34.3763 200.195 31.5117C199.544 28.6471 199.219 25.7826 199.219 22.918C199.219 20.7044 199.674 19.1257 200.586 18.1816C201.497 17.2051 202.979 16.7168 205.029 16.7168C207.601 16.7168 209.033 17.7747 209.326 19.8906C209.912 24.3828 210.726 28.4355 211.768 32.0488C212.809 35.6621 214.03 38.7383 215.43 41.2773C216.862 43.8164 218.441 45.7695 220.166 47.1367C221.924 48.5039 223.779 49.1875 225.732 49.1875C227.132 49.1875 228.451 48.8457 229.688 48.1621C230.924 47.446 231.999 46.4531 232.91 45.1836C233.236 44.6953 233.447 44.2233 233.545 43.7676C233.675 43.3118 233.773 42.791 233.838 42.2051C234.001 39.8939 234.18 37.6315 234.375 35.418C234.603 33.1719 234.814 30.9258 235.01 28.6797C235.075 27.7031 235.205 26.9056 235.4 26.2871C235.596 25.6686 235.889 25.1803 236.279 24.8223C236.67 24.4642 237.174 24.2201 237.793 24.0898C238.444 23.9596 239.258 23.8945 240.234 23.8945C241.341 23.8945 242.285 24.0573 243.066 24.3828C243.848 24.6758 244.482 25.1803 244.971 25.8965C245.459 26.5801 245.801 27.4915 245.996 28.6309C246.224 29.7376 246.338 31.1211 246.338 32.7812C246.338 34.2135 246.224 35.4668 245.996 36.541C245.801 37.5827 245.557 38.5755 245.264 39.5195C245.003 40.431 244.743 41.3424 244.482 42.2539C244.255 43.1328 244.108 44.1094 244.043 45.1836C243.88 47.8854 243.734 50.2292 243.604 52.2148C243.473 54.168 243.359 55.8444 243.262 57.2441C243.197 58.6439 243.132 59.8483 243.066 60.8574C243.034 61.8665 243.001 62.7617 242.969 63.543C242.936 64.3568 242.92 65.1217 242.92 65.8379C242.92 66.554 242.92 67.3353 242.92 68.1816C242.92 69.7116 242.985 71.3717 243.115 73.1621C243.245 74.985 243.376 76.7266 243.506 78.3867C243.669 80.0469 243.815 81.5117 243.945 82.7812C244.076 84.0508 244.141 84.9297 244.141 85.418C244.141 86.0365 243.945 86.6224 243.555 87.1758C243.164 87.7292 242.643 88.2174 241.992 88.6406C241.341 89.0638 240.576 89.3893 239.697 89.6172C238.818 89.8776 237.891 90.0078 236.914 90.0078C236.068 90.0078 235.384 89.7148 234.863 89.1289C234.375 88.5755 234.098 87.8268 234.033 86.8828C233.936 85.6458 233.854 84.1322 233.789 82.3418C233.724 80.584 233.659 78.696 233.594 76.6777C233.529 74.6921 233.48 72.6576 233.447 70.5742C233.447 68.5234 233.431 66.6029 233.398 64.8125C233.366 63.0547 233.35 61.5085 233.35 60.1738C233.35 58.8392 233.35 57.8789 233.35 57.293C233.35 56.707 233.285 56.3001 233.154 56.0723C233.024 55.8118 232.78 55.6816 232.422 55.6816C232.227 55.6816 231.966 55.7467 231.641 55.877C231.315 55.9746 230.941 56.1536 230.518 56.4141C229.378 57.0977 228.223 57.5859 227.051 57.8789C225.879 58.1719 224.642 58.3184 223.34 58.3184ZM253.467 39.9102C252.555 39.9102 251.807 39.5358 251.221 38.7871C250.635 38.0059 250.342 36.8828 250.342 35.418C250.342 34.1159 250.928 33.1393 252.1 32.4883C253.271 31.8372 255.257 31.3815 258.057 31.1211C258.968 31.0234 260.156 30.8932 261.621 30.7305C263.118 30.5352 264.632 30.3561 266.162 30.1934C267.725 29.998 269.189 29.8353 270.557 29.7051C271.956 29.5749 273.047 29.5098 273.828 29.5098C275.033 29.5098 275.96 29.8678 276.611 30.584C277.295 31.3001 277.637 32.5697 277.637 34.3926C277.637 36.2806 275.765 37.4199 272.021 37.8105C271.533 37.8757 270.801 37.9733 269.824 38.1035C268.88 38.2012 267.806 38.3314 266.602 38.4941C265.397 38.6569 264.128 38.8197 262.793 38.9824C261.491 39.1452 260.238 39.2917 259.033 39.4219C257.829 39.5521 256.722 39.666 255.713 39.7637C254.736 39.8613 253.988 39.9102 253.467 39.9102ZM287.5 73.6992C288.346 73.6992 289.046 73.569 289.6 73.3086C290.153 73.0807 290.592 72.6413 290.918 71.9902C291.243 71.3392 291.471 70.4603 291.602 69.3535C291.732 68.2467 291.797 66.8307 291.797 65.1055C291.797 58.4323 291.553 52.6868 291.064 47.8691C290.609 43.0514 290.104 38.9824 289.551 35.6621C288.997 32.3418 288.477 29.6888 287.988 27.7031C287.533 25.6849 287.305 24.1549 287.305 23.1133C287.305 22.0065 287.809 21.1113 288.818 20.4277C289.827 19.7441 291.211 19.3698 292.969 19.3047C295.475 19.3047 296.989 20.0371 297.51 21.502C298.193 23.8132 298.812 26.4824 299.365 29.5098C299.951 32.5046 300.439 35.7435 300.83 39.2266C301.253 42.7096 301.562 46.3555 301.758 50.1641C301.986 53.9401 302.1 57.7487 302.1 61.5898C302.1 65.6589 301.855 69.0768 301.367 71.8438C300.911 74.6432 300.114 76.8893 298.975 78.582C297.868 80.2747 296.403 81.4792 294.58 82.1953C292.757 82.944 290.495 83.3184 287.793 83.3184C286.198 83.3184 284.521 83.1068 282.764 82.6836C281.038 82.293 279.346 81.7559 277.686 81.0723C276.025 80.4212 274.463 79.64 272.998 78.7285C271.501 77.8171 270.199 76.8568 269.092 75.8477C267.952 74.8711 267.057 73.862 266.406 72.8203C265.723 71.7786 265.381 70.7695 265.381 69.793C265.381 69.3047 265.576 68.7513 265.967 68.1328C266.357 67.5143 266.846 66.9284 267.432 66.375C267.985 65.8542 268.587 65.4147 269.238 65.0566C269.889 64.6986 270.475 64.5195 270.996 64.5195C271.615 64.5195 272.266 64.7474 272.949 65.2031C273.6 65.6589 274.316 66.2285 275.098 66.9121C275.846 67.5957 276.66 68.3281 277.539 69.1094C278.385 69.8906 279.313 70.623 280.322 71.3066C281.364 71.9902 282.471 72.5599 283.643 73.0156C284.814 73.4714 286.1 73.6992 287.5 73.6992ZM293.896 11.1992C292.952 11.1667 292.074 11.0039 291.26 10.7109C290.479 10.418 289.795 10.0273 289.209 9.53906C288.623 9.01823 288.151 8.43229 287.793 7.78125C287.467 7.09766 287.305 6.36523 287.305 5.58398C287.305 4.2168 287.826 3.11003 288.867 2.26367C289.909 1.41732 291.309 0.994141 293.066 0.994141C293.945 0.994141 294.775 1.1569 295.557 1.48242C296.37 1.77539 297.087 2.19857 297.705 2.75195C298.324 3.27279 298.812 3.89128 299.17 4.60742C299.528 5.29102 299.707 6.02344 299.707 6.80469C299.707 8.20443 299.202 9.29492 298.193 10.0762C297.184 10.8249 295.752 11.1992 293.896 11.1992ZM324.902 14.6172C327.083 14.6172 329.329 14.9102 331.641 15.4961C333.952 16.0495 336.068 16.7819 337.988 17.6934C339.909 18.5723 341.488 19.5651 342.725 20.6719C343.962 21.7786 344.58 22.8529 344.58 23.8945C344.58 24.4154 344.352 25.0013 343.896 25.6523C343.441 26.2708 342.887 26.873 342.236 27.459C341.585 28.0124 340.869 28.4844 340.088 28.875C339.339 29.2331 338.672 29.4121 338.086 29.4121C337.305 29.4121 336.426 29.0866 335.449 28.4355C334.505 27.7845 333.447 27.0684 332.275 26.2871C331.136 25.4733 329.883 24.7409 328.516 24.0898C327.148 23.4388 325.667 23.1133 324.072 23.1133C323.031 23.1133 322.168 23.3737 321.484 23.8945C320.833 24.3828 320.508 25.0827 320.508 25.9941C320.508 26.8079 320.898 27.638 321.68 28.4844C322.461 29.2982 323.486 30.1445 324.756 31.0234C326.058 31.9023 327.523 32.8301 329.15 33.8066C330.778 34.7832 332.438 35.8249 334.131 36.9316C335.856 38.0384 337.533 39.2428 339.16 40.5449C340.788 41.847 342.236 43.263 343.506 44.793C344.808 46.3229 345.85 47.9993 346.631 49.8223C347.412 51.6126 347.803 53.5658 347.803 55.6816C347.803 57.5046 347.477 59.1647 346.826 60.6621C346.175 62.1595 345.247 63.4453 344.043 64.5195C342.839 65.5938 341.406 66.4238 339.746 67.0098C338.086 67.5957 336.263 67.8887 334.277 67.8887C331.771 67.8887 329.46 67.498 327.344 66.7168C325.228 65.9681 323.405 64.9264 321.875 63.5918C320.345 62.2572 319.141 60.6621 318.262 58.8066C317.415 56.9512 316.992 54.9167 316.992 52.7031C316.992 49.8385 317.497 47.7552 318.506 46.4531C319.548 45.151 321.175 44.5 323.389 44.5C324.756 44.5 325.846 44.7604 326.66 45.2812C327.474 45.8021 327.881 46.4368 327.881 47.1855C327.881 47.5762 327.816 47.9831 327.686 48.4062C327.555 48.7969 327.409 49.2201 327.246 49.6758C327.116 50.099 326.986 50.5547 326.855 51.043C326.758 51.5312 326.709 52.0195 326.709 52.5078C326.709 53.3542 326.904 54.168 327.295 54.9492C327.686 55.7305 328.206 56.4141 328.857 57C329.541 57.6185 330.322 58.1068 331.201 58.4648C332.08 58.8229 333.008 59.002 333.984 59.002C336.589 59.002 337.891 57.9277 337.891 55.7793C337.891 54.0866 337.223 52.4915 335.889 50.9941C334.554 49.4642 332.878 47.9831 330.859 46.5508C328.841 45.0859 326.66 43.6211 324.316 42.1562C322.005 40.6914 319.84 39.1615 317.822 37.5664C315.804 35.9714 314.128 34.2786 312.793 32.4883C311.458 30.6654 310.791 28.696 310.791 26.5801C310.791 24.8223 311.149 23.2109 311.865 21.7461C312.614 20.2812 313.623 19.028 314.893 17.9863C316.162 16.9121 317.643 16.082 319.336 15.4961C321.061 14.9102 322.917 14.6172 324.902 14.6172ZM350.195 40.7891C350.195 40.2357 350.26 39.6172 350.391 38.9336C350.521 38.25 350.586 37.5013 350.586 36.6875C350.586 36.1341 350.342 35.7109 349.854 35.418C349.398 35.125 348.877 34.7995 348.291 34.4414C347.705 34.0833 347.168 33.6276 346.68 33.0742C346.224 32.5208 345.996 31.7233 345.996 30.6816C345.996 29.9329 346.191 29.1842 346.582 28.4355C347.005 27.6868 347.607 27.0033 348.389 26.3848C350.309 24.9525 352.295 23.6667 354.346 22.5273C356.429 21.388 358.496 20.4277 360.547 19.6465C362.63 18.8652 364.681 18.263 366.699 17.8398C368.717 17.4167 370.654 17.2051 372.51 17.2051C375.635 17.2051 378.564 17.791 381.299 18.9629C384.066 20.1022 386.458 21.681 388.477 23.6992C390.527 25.6849 392.139 28.0286 393.311 30.7305C394.515 33.3997 395.117 36.2643 395.117 39.3242C395.117 42.319 394.482 45.1673 393.213 47.8691C391.976 50.5384 390.299 52.8822 388.184 54.9004C386.068 56.9186 383.577 58.5137 380.713 59.6855C377.881 60.89 374.886 61.4922 371.729 61.4922C368.636 61.4922 365.771 60.9714 363.135 59.9297C360.498 58.888 358.219 57.4557 356.299 55.6328C354.378 53.7773 352.881 51.5964 351.807 49.0898C350.732 46.5508 350.195 43.7839 350.195 40.7891ZM372.803 52.7031C374.17 52.7031 375.586 52.4264 377.051 51.873C378.516 51.3197 379.85 50.5221 381.055 49.4805C382.292 48.4062 383.301 47.1042 384.082 45.5742C384.896 44.0443 385.303 42.319 385.303 40.3984C385.303 38.4453 384.945 36.6224 384.229 34.9297C383.512 33.237 382.52 31.7721 381.25 30.5352C380.013 29.2656 378.532 28.2728 376.807 27.5566C375.114 26.8405 373.275 26.4824 371.289 26.4824C367.676 26.4824 364.909 27.4264 362.988 29.3145C361.068 31.1699 360.107 34.0345 360.107 37.9082C360.107 40.0241 360.417 41.9935 361.035 43.8164C361.686 45.6068 362.581 47.1693 363.721 48.5039C364.86 49.806 366.195 50.8314 367.725 51.5801C369.287 52.3288 370.98 52.7031 372.803 52.7031ZM402.344 17.5957C402.344 17.1074 402.555 16.6354 402.979 16.1797C403.402 15.6914 403.955 15.2682 404.639 14.9102C405.322 14.5195 406.087 14.2103 406.934 13.9824C407.812 13.722 408.691 13.5918 409.57 13.5918C410.059 13.5918 410.465 13.722 410.791 13.9824C411.149 14.2428 411.458 14.7474 411.719 15.4961C411.979 16.2122 412.207 17.2376 412.402 18.5723C412.63 19.8743 412.842 21.5833 413.037 23.6992C413.167 24.3503 413.281 24.8548 413.379 25.2129C413.509 25.5384 413.672 25.7012 413.867 25.7012C414.16 25.7012 414.453 25.1966 414.746 24.1875C417.122 17.319 420.557 13.8848 425.049 13.8848C427.132 13.8848 429.02 14.5358 430.713 15.8379C432.438 17.14 434.033 19.2721 435.498 22.2344C436.995 25.1641 438.411 29.0378 439.746 33.8555C441.081 38.6406 442.415 44.5488 443.75 51.5801C443.815 51.9382 443.864 52.2637 443.896 52.5566C443.929 52.8496 443.945 53.1263 443.945 53.3867C443.945 54.1354 443.766 54.7865 443.408 55.3398C443.083 55.8607 442.643 56.3001 442.09 56.6582C441.536 56.9837 440.918 57.2279 440.234 57.3906C439.551 57.5859 438.867 57.6836 438.184 57.6836C436.816 57.6836 435.824 57.5371 435.205 57.2441C434.619 56.9512 434.245 56.3978 434.082 55.584C433.138 50.6361 432.21 46.2415 431.299 42.4004C430.42 38.5592 429.541 35.3366 428.662 32.7324C427.816 30.0957 426.969 28.0938 426.123 26.7266C425.277 25.3594 424.43 24.6758 423.584 24.6758C422.738 24.6758 421.94 25.2129 421.191 26.2871C420.475 27.3288 419.775 28.9727 419.092 31.2188C418.408 33.4648 417.741 36.3132 417.09 39.7637C416.471 43.2142 415.869 47.332 415.283 52.1172C415.12 53.4193 414.469 54.4609 413.33 55.2422C412.191 56.0234 410.742 56.4141 408.984 56.4141C407.812 56.4141 406.917 56.1699 406.299 55.6816C405.68 55.1934 405.339 54.526 405.273 53.6797C404.98 46.9089 404.655 41.3424 404.297 36.9805C403.971 32.5859 403.662 29.0703 403.369 26.4336C403.076 23.7643 402.832 21.7786 402.637 20.4766C402.441 19.1745 402.344 18.2142 402.344 17.5957Z" fill="#CACACA"/>
</svg>
