<svg width="728" height="200" viewBox="0 0 728 200" fill="none" xmlns="http://www.w3.org/2000/svg">
<path d="M211.219 100.715C211.219 105.077 211.886 108.446 213.221 110.822C214.555 113.199 216.492 114.387 219.031 114.387C220.626 114.387 222.091 113.915 223.426 112.971C224.793 112.027 225.965 110.708 226.941 109.016C227.918 107.323 228.667 105.321 229.188 103.01C229.741 100.666 230.018 98.127 230.018 95.3926C230.018 93.7324 229.952 92.3001 229.822 91.0957C229.692 89.8587 229.546 88.7682 229.383 87.8242C229.253 86.8477 229.122 85.985 228.992 85.2363C228.862 84.4876 228.797 83.7715 228.797 83.0879C228.797 82.0462 229.236 81.2975 230.115 80.8418C230.994 80.3535 232.394 80.1094 234.314 80.1094C236.756 80.1094 238.644 80.6628 239.979 81.7695C241.346 82.8763 242.029 84.4876 242.029 86.6035C242.029 92.3652 241.46 97.541 240.32 102.131C239.214 106.721 237.602 110.627 235.486 113.85C233.403 117.04 230.864 119.497 227.869 121.223C224.874 122.948 221.521 123.811 217.811 123.811C215.174 123.811 212.732 123.257 210.486 122.15C208.273 121.076 206.352 119.562 204.725 117.609C203.13 115.624 201.876 113.28 200.965 110.578C200.053 107.844 199.598 104.849 199.598 101.594C199.598 100.357 199.63 99.0384 199.695 97.6387C199.76 96.2389 199.858 94.7415 199.988 93.1465C200.118 91.5189 200.281 89.7611 200.477 87.873C200.704 85.985 200.949 83.9342 201.209 81.7207C201.307 80.7767 201.746 80.028 202.527 79.4746C203.341 78.8887 204.367 78.5957 205.604 78.5957C206.71 78.5957 207.752 78.7096 208.729 78.9375C209.705 79.1654 210.535 79.4746 211.219 79.8652C211.935 80.2559 212.488 80.7116 212.879 81.2324C213.302 81.7533 213.514 82.3066 213.514 82.8926C213.514 83.4785 213.383 84.4062 213.123 85.6758C212.895 86.9128 212.635 88.3451 212.342 89.9727C212.081 91.5677 211.821 93.3092 211.561 95.1973C211.333 97.0527 211.219 98.8919 211.219 100.715ZM289.49 107.307C290.434 106.493 291.362 106.086 292.273 106.086C292.794 106.086 293.266 106.216 293.689 106.477C294.113 106.737 294.585 107.144 295.105 107.697C295.594 108.446 295.936 109.064 296.131 109.553C296.359 110.008 296.473 110.464 296.473 110.92C296.473 111.896 295.984 112.824 295.008 113.703C293.445 115.005 291.753 116.177 289.93 117.219C288.107 118.228 286.202 119.09 284.217 119.807C282.231 120.523 280.18 121.06 278.064 121.418C275.949 121.809 273.849 122.004 271.766 122.004C269.129 122.004 266.655 121.662 264.344 120.979C262.033 120.327 259.965 119.383 258.143 118.146C256.352 116.91 254.839 115.428 253.602 113.703C252.365 111.945 251.486 109.976 250.965 107.795C250.672 106.883 250.395 106.298 250.135 106.037C249.907 105.744 249.516 105.598 248.963 105.598C247.758 105.598 246.831 105.305 246.18 104.719C245.529 104.133 245.203 103.286 245.203 102.18C245.203 101.724 245.236 101.431 245.301 101.301L245.398 100.324C245.561 99.1523 245.87 98.306 246.326 97.7852C246.814 97.2643 247.563 97.0039 248.572 97.0039H249.305C250.672 97.0039 251.632 96.3691 252.186 95.0996C253.195 92.8535 254.48 90.8027 256.043 88.9473C257.605 87.0918 259.363 85.513 261.316 84.2109C263.27 82.8763 265.353 81.8509 267.566 81.1348C269.812 80.3861 272.091 80.0117 274.402 80.0117C276.811 80.0117 279.057 80.3698 281.141 81.0859C283.257 81.7695 285.096 82.7298 286.658 83.9668C288.221 85.2038 289.441 86.6523 290.32 88.3125C291.232 89.9727 291.688 91.763 291.688 93.6836C291.688 95.0182 291.427 96.2389 290.906 97.3457C290.385 98.4525 289.637 99.429 288.66 100.275C287.684 101.089 286.495 101.757 285.096 102.277C283.729 102.798 282.166 103.14 280.408 103.303L263.465 105.012C262.814 105.012 262.277 105.174 261.854 105.5C261.463 105.826 261.268 106.265 261.268 106.818C261.268 107.665 261.577 108.479 262.195 109.26C262.846 110.041 263.693 110.741 264.734 111.359C265.809 111.945 267.029 112.417 268.396 112.775C269.796 113.133 271.229 113.312 272.693 113.312C274.093 113.312 275.525 113.182 276.99 112.922C278.488 112.629 279.952 112.222 281.385 111.701C282.85 111.18 284.266 110.562 285.633 109.846C287 109.097 288.286 108.251 289.49 107.307ZM278.602 94.709C279.09 94.6113 279.513 94.3835 279.871 94.0254C280.229 93.6348 280.408 93.1628 280.408 92.6094C280.408 92.1211 280.229 91.6654 279.871 91.2422C279.513 90.819 279.025 90.4447 278.406 90.1191C277.788 89.7611 277.072 89.4844 276.258 89.2891C275.444 89.0938 274.581 88.9961 273.67 88.9961C272.335 88.9961 270.968 89.1914 269.568 89.582C268.169 89.9727 266.899 90.4935 265.76 91.1445C264.62 91.763 263.693 92.4629 262.977 93.2441C262.26 93.9928 261.902 94.7415 261.902 95.4902C261.902 96.2389 262.358 96.6133 263.27 96.6133C263.823 96.6133 264.718 96.5482 265.955 96.418C267.192 96.2878 268.559 96.1413 270.057 95.9785C271.554 95.7832 273.068 95.5716 274.598 95.3438C276.128 95.1159 277.462 94.9043 278.602 94.709ZM326.062 81.4766C324.858 81.4766 323.8 81.8021 322.889 82.4531C321.977 83.0716 321.196 83.9505 320.545 85.0898C319.894 86.1966 319.357 87.515 318.934 89.0449C318.51 90.5423 318.169 92.1862 317.908 93.9766C317.648 95.7669 317.469 97.6387 317.371 99.5918C317.273 101.545 317.225 103.514 317.225 105.5C317.225 108.104 317.322 110.676 317.518 113.215C317.745 115.721 317.859 118.049 317.859 120.197C317.859 121.597 317.339 122.688 316.297 123.469C315.255 124.283 313.774 124.689 311.854 124.689C311.495 124.689 311.089 124.657 310.633 124.592C310.177 124.527 309.738 124.396 309.314 124.201C308.924 124.006 308.566 123.729 308.24 123.371C307.947 123.046 307.785 122.59 307.752 122.004C307.459 119.139 307.036 116.21 306.482 113.215C305.929 110.22 305.229 107.242 304.383 104.279C303.569 101.285 302.576 98.3223 301.404 95.3926C300.265 92.4629 298.947 89.5983 297.449 86.7988C297.189 86.3105 296.961 85.8548 296.766 85.4316C296.603 85.0085 296.521 84.6016 296.521 84.2109C296.521 83.7227 296.733 83.2018 297.156 82.6484C297.612 82.0625 298.165 81.5254 298.816 81.0371C299.5 80.5488 300.232 80.1582 301.014 79.8652C301.827 79.5397 302.609 79.377 303.357 79.377C304.594 79.377 305.685 80.2396 306.629 81.9648C307.573 83.6576 308.452 86.3757 309.266 90.1191C309.428 90.7702 309.559 91.2259 309.656 91.4863C309.754 91.7467 309.884 91.877 310.047 91.877C310.405 91.877 310.633 91.3236 310.73 90.2168C311.121 87.1243 311.788 84.4714 312.732 82.2578C313.676 80.0117 314.848 78.1725 316.248 76.7402C317.68 75.2754 319.308 74.2012 321.131 73.5176C322.986 72.834 325.021 72.4922 327.234 72.4922C328.504 72.4922 329.79 72.6061 331.092 72.834C332.394 73.0618 333.566 73.4036 334.607 73.8594C335.649 74.3151 336.495 74.8685 337.146 75.5195C337.798 76.1706 338.123 76.903 338.123 77.7168C338.123 78.3027 337.993 79.0026 337.732 79.8164C337.505 80.5977 337.195 81.3626 336.805 82.1113C336.414 82.8275 335.958 83.446 335.438 83.9668C334.949 84.4551 334.445 84.6992 333.924 84.6992C333.338 84.6992 332.768 84.5365 332.215 84.2109C331.661 83.8529 331.059 83.4785 330.408 83.0879C329.79 82.6973 329.122 82.3392 328.406 82.0137C327.723 81.6556 326.941 81.4766 326.062 81.4766ZM362.408 119.318C360.455 119.318 358.502 118.846 356.549 117.902C354.596 116.926 352.724 115.607 350.934 113.947C349.143 112.287 347.483 110.334 345.953 108.088C344.423 105.809 343.089 103.368 341.949 100.764C340.81 98.127 339.915 95.3763 339.264 92.5117C338.613 89.6471 338.287 86.7826 338.287 83.918C338.287 81.7044 338.743 80.1257 339.654 79.1816C340.566 78.2051 342.047 77.7168 344.098 77.7168C346.669 77.7168 348.102 78.7747 348.395 80.8906C348.98 85.3828 349.794 89.4355 350.836 93.0488C351.878 96.6621 353.098 99.7383 354.498 102.277C355.93 104.816 357.509 106.77 359.234 108.137C360.992 109.504 362.848 110.188 364.801 110.188C366.201 110.188 367.519 109.846 368.756 109.162C369.993 108.446 371.067 107.453 371.979 106.184C372.304 105.695 372.516 105.223 372.613 104.768C372.743 104.312 372.841 103.791 372.906 103.205C373.069 100.894 373.248 98.6315 373.443 96.418C373.671 94.1719 373.883 91.9258 374.078 89.6797C374.143 88.7031 374.273 87.9056 374.469 87.2871C374.664 86.6686 374.957 86.1803 375.348 85.8223C375.738 85.4642 376.243 85.2201 376.861 85.0898C377.512 84.9596 378.326 84.8945 379.303 84.8945C380.41 84.8945 381.354 85.0573 382.135 85.3828C382.916 85.6758 383.551 86.1803 384.039 86.8965C384.527 87.5801 384.869 88.4915 385.064 89.6309C385.292 90.7376 385.406 92.1211 385.406 93.7812C385.406 95.2135 385.292 96.4668 385.064 97.541C384.869 98.5827 384.625 99.5755 384.332 100.52C384.072 101.431 383.811 102.342 383.551 103.254C383.323 104.133 383.176 105.109 383.111 106.184C382.949 108.885 382.802 111.229 382.672 113.215C382.542 115.168 382.428 116.844 382.33 118.244C382.265 119.644 382.2 120.848 382.135 121.857C382.102 122.867 382.07 123.762 382.037 124.543C382.005 125.357 381.988 126.122 381.988 126.838C381.988 127.554 381.988 128.335 381.988 129.182C381.988 130.712 382.053 132.372 382.184 134.162C382.314 135.985 382.444 137.727 382.574 139.387C382.737 141.047 382.883 142.512 383.014 143.781C383.144 145.051 383.209 145.93 383.209 146.418C383.209 147.036 383.014 147.622 382.623 148.176C382.232 148.729 381.712 149.217 381.061 149.641C380.41 150.064 379.645 150.389 378.766 150.617C377.887 150.878 376.959 151.008 375.982 151.008C375.136 151.008 374.452 150.715 373.932 150.129C373.443 149.576 373.167 148.827 373.102 147.883C373.004 146.646 372.923 145.132 372.857 143.342C372.792 141.584 372.727 139.696 372.662 137.678C372.597 135.692 372.548 133.658 372.516 131.574C372.516 129.523 372.499 127.603 372.467 125.812C372.434 124.055 372.418 122.508 372.418 121.174C372.418 119.839 372.418 118.879 372.418 118.293C372.418 117.707 372.353 117.3 372.223 117.072C372.092 116.812 371.848 116.682 371.49 116.682C371.295 116.682 371.035 116.747 370.709 116.877C370.383 116.975 370.009 117.154 369.586 117.414C368.447 118.098 367.291 118.586 366.119 118.879C364.947 119.172 363.71 119.318 362.408 119.318ZM392.535 100.91C391.624 100.91 390.875 100.536 390.289 99.7871C389.703 99.0059 389.41 97.8828 389.41 96.418C389.41 95.1159 389.996 94.1393 391.168 93.4883C392.34 92.8372 394.326 92.3815 397.125 92.1211C398.036 92.0234 399.225 91.8932 400.689 91.7305C402.187 91.5352 403.701 91.3561 405.23 91.1934C406.793 90.998 408.258 90.8353 409.625 90.7051C411.025 90.5749 412.115 90.5098 412.896 90.5098C414.101 90.5098 415.029 90.8678 415.68 91.584C416.363 92.3001 416.705 93.5697 416.705 95.3926C416.705 97.2806 414.833 98.4199 411.09 98.8105C410.602 98.8757 409.869 98.9733 408.893 99.1035C407.949 99.2012 406.874 99.3314 405.67 99.4941C404.465 99.6569 403.196 99.8197 401.861 99.9824C400.559 100.145 399.306 100.292 398.102 100.422C396.897 100.552 395.79 100.666 394.781 100.764C393.805 100.861 393.056 100.91 392.535 100.91ZM426.568 134.699C427.415 134.699 428.115 134.569 428.668 134.309C429.221 134.081 429.661 133.641 429.986 132.99C430.312 132.339 430.54 131.46 430.67 130.354C430.8 129.247 430.865 127.831 430.865 126.105C430.865 119.432 430.621 113.687 430.133 108.869C429.677 104.051 429.173 99.9824 428.619 96.6621C428.066 93.3418 427.545 90.6888 427.057 88.7031C426.601 86.6849 426.373 85.1549 426.373 84.1133C426.373 83.0065 426.878 82.1113 427.887 81.4277C428.896 80.7441 430.279 80.3698 432.037 80.3047C434.544 80.3047 436.057 81.0371 436.578 82.502C437.262 84.8132 437.88 87.4824 438.434 90.5098C439.02 93.5046 439.508 96.7435 439.898 100.227C440.322 103.71 440.631 107.355 440.826 111.164C441.054 114.94 441.168 118.749 441.168 122.59C441.168 126.659 440.924 130.077 440.436 132.844C439.98 135.643 439.182 137.889 438.043 139.582C436.936 141.275 435.471 142.479 433.648 143.195C431.826 143.944 429.563 144.318 426.861 144.318C425.266 144.318 423.59 144.107 421.832 143.684C420.107 143.293 418.414 142.756 416.754 142.072C415.094 141.421 413.531 140.64 412.066 139.729C410.569 138.817 409.267 137.857 408.16 136.848C407.021 135.871 406.126 134.862 405.475 133.82C404.791 132.779 404.449 131.77 404.449 130.793C404.449 130.305 404.645 129.751 405.035 129.133C405.426 128.514 405.914 127.928 406.5 127.375C407.053 126.854 407.656 126.415 408.307 126.057C408.958 125.699 409.544 125.52 410.064 125.52C410.683 125.52 411.334 125.747 412.018 126.203C412.669 126.659 413.385 127.229 414.166 127.912C414.915 128.596 415.729 129.328 416.607 130.109C417.454 130.891 418.382 131.623 419.391 132.307C420.432 132.99 421.539 133.56 422.711 134.016C423.883 134.471 425.169 134.699 426.568 134.699ZM432.965 72.1992C432.021 72.1667 431.142 72.0039 430.328 71.7109C429.547 71.418 428.863 71.0273 428.277 70.5391C427.691 70.0182 427.219 69.4323 426.861 68.7812C426.536 68.0977 426.373 67.3652 426.373 66.584C426.373 65.2168 426.894 64.11 427.936 63.2637C428.977 62.4173 430.377 61.9941 432.135 61.9941C433.014 61.9941 433.844 62.1569 434.625 62.4824C435.439 62.7754 436.155 63.1986 436.773 63.752C437.392 64.2728 437.88 64.8913 438.238 65.6074C438.596 66.291 438.775 67.0234 438.775 67.8047C438.775 69.2044 438.271 70.2949 437.262 71.0762C436.253 71.8249 434.82 72.1992 432.965 72.1992ZM463.971 75.6172C466.152 75.6172 468.398 75.9102 470.709 76.4961C473.02 77.0495 475.136 77.7819 477.057 78.6934C478.977 79.5723 480.556 80.5651 481.793 81.6719C483.03 82.7786 483.648 83.8529 483.648 84.8945C483.648 85.4154 483.421 86.0013 482.965 86.6523C482.509 87.2708 481.956 87.873 481.305 88.459C480.654 89.0124 479.938 89.4844 479.156 89.875C478.408 90.2331 477.74 90.4121 477.154 90.4121C476.373 90.4121 475.494 90.0866 474.518 89.4355C473.574 88.7845 472.516 88.0684 471.344 87.2871C470.204 86.4733 468.951 85.7409 467.584 85.0898C466.217 84.4388 464.736 84.1133 463.141 84.1133C462.099 84.1133 461.236 84.3737 460.553 84.8945C459.902 85.3828 459.576 86.0827 459.576 86.9941C459.576 87.8079 459.967 88.638 460.748 89.4844C461.529 90.2982 462.555 91.1445 463.824 92.0234C465.126 92.9023 466.591 93.8301 468.219 94.8066C469.846 95.7832 471.507 96.8249 473.199 97.9316C474.924 99.0384 476.601 100.243 478.229 101.545C479.856 102.847 481.305 104.263 482.574 105.793C483.876 107.323 484.918 108.999 485.699 110.822C486.48 112.613 486.871 114.566 486.871 116.682C486.871 118.505 486.546 120.165 485.895 121.662C485.243 123.16 484.316 124.445 483.111 125.52C481.907 126.594 480.475 127.424 478.814 128.01C477.154 128.596 475.331 128.889 473.346 128.889C470.839 128.889 468.528 128.498 466.412 127.717C464.296 126.968 462.473 125.926 460.943 124.592C459.413 123.257 458.209 121.662 457.33 119.807C456.484 117.951 456.061 115.917 456.061 113.703C456.061 110.839 456.565 108.755 457.574 107.453C458.616 106.151 460.243 105.5 462.457 105.5C463.824 105.5 464.915 105.76 465.729 106.281C466.542 106.802 466.949 107.437 466.949 108.186C466.949 108.576 466.884 108.983 466.754 109.406C466.624 109.797 466.477 110.22 466.314 110.676C466.184 111.099 466.054 111.555 465.924 112.043C465.826 112.531 465.777 113.02 465.777 113.508C465.777 114.354 465.973 115.168 466.363 115.949C466.754 116.73 467.275 117.414 467.926 118C468.609 118.618 469.391 119.107 470.27 119.465C471.148 119.823 472.076 120.002 473.053 120.002C475.657 120.002 476.959 118.928 476.959 116.779C476.959 115.087 476.292 113.492 474.957 111.994C473.622 110.464 471.946 108.983 469.928 107.551C467.91 106.086 465.729 104.621 463.385 103.156C461.074 101.691 458.909 100.161 456.891 98.5664C454.872 96.9714 453.196 95.2786 451.861 93.4883C450.527 91.6654 449.859 89.696 449.859 87.5801C449.859 85.8223 450.217 84.2109 450.934 82.7461C451.682 81.2812 452.691 80.028 453.961 78.9863C455.23 77.9121 456.712 77.082 458.404 76.4961C460.13 75.9102 461.985 75.6172 463.971 75.6172ZM489.264 101.789C489.264 101.236 489.329 100.617 489.459 99.9336C489.589 99.25 489.654 98.5013 489.654 97.6875C489.654 97.1341 489.41 96.7109 488.922 96.418C488.466 96.125 487.945 95.7995 487.359 95.4414C486.773 95.0833 486.236 94.6276 485.748 94.0742C485.292 93.5208 485.064 92.7233 485.064 91.6816C485.064 90.9329 485.26 90.1842 485.65 89.4355C486.074 88.6868 486.676 88.0033 487.457 87.3848C489.378 85.9525 491.363 84.6667 493.414 83.5273C495.497 82.388 497.564 81.4277 499.615 80.6465C501.699 79.8652 503.749 79.263 505.768 78.8398C507.786 78.4167 509.723 78.2051 511.578 78.2051C514.703 78.2051 517.633 78.791 520.367 79.9629C523.134 81.1022 525.527 82.681 527.545 84.6992C529.596 86.6849 531.207 89.0286 532.379 91.7305C533.583 94.3997 534.186 97.2643 534.186 100.324C534.186 103.319 533.551 106.167 532.281 108.869C531.044 111.538 529.368 113.882 527.252 115.9C525.136 117.919 522.646 119.514 519.781 120.686C516.949 121.89 513.954 122.492 510.797 122.492C507.704 122.492 504.84 121.971 502.203 120.93C499.566 119.888 497.288 118.456 495.367 116.633C493.447 114.777 491.949 112.596 490.875 110.09C489.801 107.551 489.264 104.784 489.264 101.789ZM511.871 113.703C513.238 113.703 514.654 113.426 516.119 112.873C517.584 112.32 518.919 111.522 520.123 110.48C521.36 109.406 522.369 108.104 523.15 106.574C523.964 105.044 524.371 103.319 524.371 101.398C524.371 99.4453 524.013 97.6224 523.297 95.9297C522.581 94.237 521.588 92.7721 520.318 91.5352C519.081 90.2656 517.6 89.2728 515.875 88.5566C514.182 87.8405 512.343 87.4824 510.357 87.4824C506.744 87.4824 503.977 88.4264 502.057 90.3145C500.136 92.1699 499.176 95.0345 499.176 98.9082C499.176 101.024 499.485 102.993 500.104 104.816C500.755 106.607 501.65 108.169 502.789 109.504C503.928 110.806 505.263 111.831 506.793 112.58C508.355 113.329 510.048 113.703 511.871 113.703ZM541.412 78.5957C541.412 78.1074 541.624 77.6354 542.047 77.1797C542.47 76.6914 543.023 76.2682 543.707 75.9102C544.391 75.5195 545.156 75.2103 546.002 74.9824C546.881 74.722 547.76 74.5918 548.639 74.5918C549.127 74.5918 549.534 74.722 549.859 74.9824C550.217 75.2428 550.527 75.7474 550.787 76.4961C551.048 77.2122 551.275 78.2376 551.471 79.5723C551.699 80.8743 551.91 82.5833 552.105 84.6992C552.236 85.3503 552.35 85.8548 552.447 86.2129C552.577 86.5384 552.74 86.7012 552.936 86.7012C553.229 86.7012 553.521 86.1966 553.814 85.1875C556.191 78.319 559.625 74.8848 564.117 74.8848C566.201 74.8848 568.089 75.5358 569.781 76.8379C571.507 78.14 573.102 80.2721 574.566 83.2344C576.064 86.1641 577.48 90.0378 578.814 94.8555C580.149 99.6406 581.484 105.549 582.818 112.58C582.883 112.938 582.932 113.264 582.965 113.557C582.997 113.85 583.014 114.126 583.014 114.387C583.014 115.135 582.835 115.786 582.477 116.34C582.151 116.861 581.712 117.3 581.158 117.658C580.605 117.984 579.986 118.228 579.303 118.391C578.619 118.586 577.936 118.684 577.252 118.684C575.885 118.684 574.892 118.537 574.273 118.244C573.688 117.951 573.313 117.398 573.15 116.584C572.206 111.636 571.279 107.242 570.367 103.4C569.488 99.5592 568.609 96.3366 567.73 93.7324C566.884 91.0957 566.038 89.0938 565.191 87.7266C564.345 86.3594 563.499 85.6758 562.652 85.6758C561.806 85.6758 561.008 86.2129 560.26 87.2871C559.544 88.3288 558.844 89.9727 558.16 92.2188C557.477 94.4648 556.809 97.3132 556.158 100.764C555.54 104.214 554.938 108.332 554.352 113.117C554.189 114.419 553.538 115.461 552.398 116.242C551.259 117.023 549.811 117.414 548.053 117.414C546.881 117.414 545.986 117.17 545.367 116.682C544.749 116.193 544.407 115.526 544.342 114.68C544.049 107.909 543.723 102.342 543.365 97.9805C543.04 93.5859 542.73 90.0703 542.438 87.4336C542.145 84.7643 541.9 82.7786 541.705 81.4766C541.51 80.1745 541.412 79.2142 541.412 78.5957Z" fill="#CACACA"/>
<path d="M181.869 126.203C181.674 124.868 181.072 124.201 180.062 124.201C179.704 124.201 179.265 124.299 178.744 124.494C177.735 124.95 176.563 125.471 175.229 126.057C173.894 126.643 172.608 127.196 171.371 127.717C170.134 128.27 169.044 128.726 168.1 129.084C167.188 129.442 166.651 129.621 166.488 129.621C166 129.621 165.544 129.458 165.121 129.133C164.698 128.84 164.324 128.449 163.998 127.961C163.705 127.473 163.461 126.919 163.266 126.301C163.07 125.682 162.973 125.08 162.973 124.494C162.973 123.843 163.103 123.241 163.363 122.688C163.624 122.134 164.063 121.711 164.682 121.418C166.895 120.311 169.125 119.27 171.371 118.293C173.65 117.316 175.945 116.356 178.256 115.412C179.46 114.924 180.062 114.012 180.062 112.678L179.379 105.5C179.184 104.23 178.712 103.596 177.963 103.596C177.442 103.596 176.872 104.003 176.254 104.816C173.227 108.723 169.988 111.587 166.537 113.41C163.119 115.201 159.392 116.096 155.355 116.096C152.947 116.096 150.717 115.754 148.666 115.07C146.648 114.387 144.906 113.443 143.441 112.238C141.977 111.034 140.821 109.602 139.975 107.941C139.161 106.249 138.754 104.41 138.754 102.424C138.754 100.21 139.21 98.0944 140.121 96.0762C141.033 94.0579 142.27 92.1862 143.832 90.4609C145.395 88.7357 147.201 87.1732 149.252 85.7734C151.335 84.3411 153.516 83.1204 155.795 82.1113C158.106 81.1022 160.45 80.3372 162.826 79.8164C165.235 79.263 167.546 78.9863 169.76 78.9863C172.104 78.9863 174.073 79.1165 175.668 79.377C177.296 79.6374 178.63 79.9141 179.672 80.207C180.128 79.6536 180.583 79.2467 181.039 78.9863C181.527 78.7259 181.999 78.5957 182.455 78.5957C183.074 78.5957 183.725 78.7096 184.408 78.9375C185.124 79.1328 185.775 79.4095 186.361 79.7676C186.98 80.1257 187.484 80.5326 187.875 80.9883C188.266 81.444 188.461 81.916 188.461 82.4043C188.461 82.7624 188.396 83.1042 188.266 83.4297C188.135 83.7552 187.989 84.0807 187.826 84.4062C187.696 84.6992 187.566 85.0247 187.436 85.3828C187.338 85.7409 187.289 86.1152 187.289 86.5059C187.289 87.2871 187.354 88.4753 187.484 90.0703C187.647 91.6654 187.842 93.4883 188.07 95.5391C188.331 97.5573 188.591 99.6895 188.852 101.936C189.145 104.182 189.421 106.33 189.682 108.381C189.877 109.781 190.544 110.48 191.684 110.48C191.781 110.48 191.911 110.464 192.074 110.432C192.237 110.399 192.4 110.35 192.562 110.285C193.832 109.927 195.15 109.569 196.518 109.211C197.885 108.82 199.154 108.479 200.326 108.186C201.531 107.893 202.556 107.665 203.402 107.502C204.249 107.307 204.802 107.209 205.062 107.209C206.104 107.209 206.885 107.583 207.406 108.332C207.927 109.081 208.188 110.106 208.188 111.408C208.188 112.417 208.008 113.361 207.65 114.24C207.292 115.119 206.771 115.64 206.088 115.803C203.842 116.291 201.661 116.828 199.545 117.414C197.429 117.967 195.297 118.57 193.148 119.221C191.879 119.611 191.244 120.441 191.244 121.711L193.783 142.316C193.783 143.033 193.555 143.7 193.1 144.318C192.676 144.937 192.123 145.474 191.439 145.93C190.756 146.385 189.991 146.743 189.145 147.004C188.298 147.264 187.468 147.395 186.654 147.395C185.906 147.395 185.287 147.183 184.799 146.76C184.311 146.369 184.034 145.848 183.969 145.197C183.676 142.04 183.334 138.898 182.943 135.773C182.585 132.648 182.227 129.458 181.869 126.203ZM157.455 107.014C159.083 107.014 160.661 106.786 162.191 106.33C163.754 105.842 165.268 105.012 166.732 103.84C168.23 102.668 169.695 101.089 171.127 99.1035C172.559 97.0853 173.975 94.5462 175.375 91.4863C175.473 91.2259 175.554 90.9818 175.619 90.7539C175.717 90.526 175.766 90.3145 175.766 90.1191C175.766 89.0449 175.131 88.4102 173.861 88.2148C172.787 88.0195 171.55 87.9219 170.15 87.9219C167.481 87.9219 164.861 88.2799 162.289 88.9961C159.717 89.7122 157.423 90.6562 155.404 91.8281C153.386 93 151.758 94.3346 150.521 95.832C149.285 97.3294 148.666 98.8594 148.666 100.422C148.666 102.57 149.415 104.214 150.912 105.354C152.41 106.46 154.59 107.014 157.455 107.014Z" fill="#4E4C4C"/>
</svg>
