<svg width="509" height="214" viewBox="0 0 509 214" fill="none" xmlns="http://www.w3.org/2000/svg">
<path d="M109.516 107.715C109.516 112.077 110.183 115.446 111.518 117.822C112.852 120.199 114.789 121.387 117.328 121.387C118.923 121.387 120.388 120.915 121.723 119.971C123.09 119.027 124.262 117.708 125.238 116.016C126.215 114.323 126.964 112.321 127.484 110.01C128.038 107.666 128.314 105.127 128.314 102.393C128.314 100.732 128.249 99.3001 128.119 98.0957C127.989 96.8587 127.842 95.7682 127.68 94.8242C127.549 93.8477 127.419 92.985 127.289 92.2363C127.159 91.4876 127.094 90.7715 127.094 90.0879C127.094 89.0462 127.533 88.2975 128.412 87.8418C129.291 87.3535 130.691 87.1094 132.611 87.1094C135.053 87.1094 136.941 87.6628 138.275 88.7695C139.643 89.8763 140.326 91.4876 140.326 93.6035C140.326 99.3652 139.757 104.541 138.617 109.131C137.51 113.721 135.899 117.627 133.783 120.85C131.7 124.04 129.161 126.497 126.166 128.223C123.171 129.948 119.818 130.811 116.107 130.811C113.471 130.811 111.029 130.257 108.783 129.15C106.57 128.076 104.649 126.562 103.021 124.609C101.426 122.624 100.173 120.28 99.2617 117.578C98.3503 114.844 97.8945 111.849 97.8945 108.594C97.8945 107.357 97.9271 106.038 97.9922 104.639C98.0573 103.239 98.1549 101.742 98.2852 100.146C98.4154 98.5189 98.5781 96.7611 98.7734 94.873C99.0013 92.985 99.2454 90.9342 99.5059 88.7207C99.6035 87.7767 100.043 87.028 100.824 86.4746C101.638 85.8887 102.663 85.5957 103.9 85.5957C105.007 85.5957 106.049 85.7096 107.025 85.9375C108.002 86.1654 108.832 86.4746 109.516 86.8652C110.232 87.2559 110.785 87.7116 111.176 88.2324C111.599 88.7533 111.811 89.3066 111.811 89.8926C111.811 90.4785 111.68 91.4062 111.42 92.6758C111.192 93.9128 110.932 95.3451 110.639 96.9727C110.378 98.5677 110.118 100.309 109.857 102.197C109.63 104.053 109.516 105.892 109.516 107.715ZM187.787 114.307C188.731 113.493 189.659 113.086 190.57 113.086C191.091 113.086 191.563 113.216 191.986 113.477C192.41 113.737 192.882 114.144 193.402 114.697C193.891 115.446 194.232 116.064 194.428 116.553C194.656 117.008 194.77 117.464 194.77 117.92C194.77 118.896 194.281 119.824 193.305 120.703C191.742 122.005 190.049 123.177 188.227 124.219C186.404 125.228 184.499 126.09 182.514 126.807C180.528 127.523 178.477 128.06 176.361 128.418C174.245 128.809 172.146 129.004 170.062 129.004C167.426 129.004 164.952 128.662 162.641 127.979C160.329 127.327 158.262 126.383 156.439 125.146C154.649 123.91 153.135 122.428 151.898 120.703C150.661 118.945 149.783 116.976 149.262 114.795C148.969 113.883 148.692 113.298 148.432 113.037C148.204 112.744 147.813 112.598 147.26 112.598C146.055 112.598 145.128 112.305 144.477 111.719C143.826 111.133 143.5 110.286 143.5 109.18C143.5 108.724 143.533 108.431 143.598 108.301L143.695 107.324C143.858 106.152 144.167 105.306 144.623 104.785C145.111 104.264 145.86 104.004 146.869 104.004H147.602C148.969 104.004 149.929 103.369 150.482 102.1C151.492 99.8535 152.777 97.8027 154.34 95.9473C155.902 94.0918 157.66 92.513 159.613 91.2109C161.566 89.8763 163.65 88.8509 165.863 88.1348C168.109 87.3861 170.388 87.0117 172.699 87.0117C175.108 87.0117 177.354 87.3698 179.438 88.0859C181.553 88.7695 183.393 89.7298 184.955 90.9668C186.518 92.2038 187.738 93.6523 188.617 95.3125C189.529 96.9727 189.984 98.763 189.984 100.684C189.984 102.018 189.724 103.239 189.203 104.346C188.682 105.452 187.934 106.429 186.957 107.275C185.98 108.089 184.792 108.757 183.393 109.277C182.025 109.798 180.463 110.14 178.705 110.303L161.762 112.012C161.111 112.012 160.574 112.174 160.15 112.5C159.76 112.826 159.564 113.265 159.564 113.818C159.564 114.665 159.874 115.479 160.492 116.26C161.143 117.041 161.99 117.741 163.031 118.359C164.105 118.945 165.326 119.417 166.693 119.775C168.093 120.133 169.525 120.312 170.99 120.312C172.39 120.312 173.822 120.182 175.287 119.922C176.785 119.629 178.249 119.222 179.682 118.701C181.146 118.18 182.562 117.562 183.93 116.846C185.297 116.097 186.583 115.251 187.787 114.307ZM176.898 101.709C177.387 101.611 177.81 101.383 178.168 101.025C178.526 100.635 178.705 100.163 178.705 99.6094C178.705 99.1211 178.526 98.6654 178.168 98.2422C177.81 97.819 177.322 97.4447 176.703 97.1191C176.085 96.7611 175.368 96.4844 174.555 96.2891C173.741 96.0938 172.878 95.9961 171.967 95.9961C170.632 95.9961 169.265 96.1914 167.865 96.582C166.465 96.9727 165.196 97.4935 164.057 98.1445C162.917 98.763 161.99 99.4629 161.273 100.244C160.557 100.993 160.199 101.742 160.199 102.49C160.199 103.239 160.655 103.613 161.566 103.613C162.12 103.613 163.015 103.548 164.252 103.418C165.489 103.288 166.856 103.141 168.354 102.979C169.851 102.783 171.365 102.572 172.895 102.344C174.424 102.116 175.759 101.904 176.898 101.709ZM224.359 88.4766C223.155 88.4766 222.097 88.8021 221.186 89.4531C220.274 90.0716 219.493 90.9505 218.842 92.0898C218.191 93.1966 217.654 94.515 217.23 96.0449C216.807 97.5423 216.465 99.1862 216.205 100.977C215.945 102.767 215.766 104.639 215.668 106.592C215.57 108.545 215.521 110.514 215.521 112.5C215.521 115.104 215.619 117.676 215.814 120.215C216.042 122.721 216.156 125.049 216.156 127.197C216.156 128.597 215.635 129.688 214.594 130.469C213.552 131.283 212.071 131.689 210.15 131.689C209.792 131.689 209.385 131.657 208.93 131.592C208.474 131.527 208.035 131.396 207.611 131.201C207.221 131.006 206.863 130.729 206.537 130.371C206.244 130.046 206.081 129.59 206.049 129.004C205.756 126.139 205.333 123.21 204.779 120.215C204.226 117.22 203.526 114.242 202.68 111.279C201.866 108.285 200.873 105.322 199.701 102.393C198.562 99.4629 197.243 96.5983 195.746 93.7988C195.486 93.3105 195.258 92.8548 195.062 92.4316C194.9 92.0085 194.818 91.6016 194.818 91.2109C194.818 90.7227 195.03 90.2018 195.453 89.6484C195.909 89.0625 196.462 88.5254 197.113 88.0371C197.797 87.5488 198.529 87.1582 199.311 86.8652C200.124 86.5397 200.906 86.377 201.654 86.377C202.891 86.377 203.982 87.2396 204.926 88.9648C205.87 90.6576 206.749 93.3757 207.562 97.1191C207.725 97.7702 207.855 98.2259 207.953 98.4863C208.051 98.7467 208.181 98.877 208.344 98.877C208.702 98.877 208.93 98.3236 209.027 97.2168C209.418 94.1243 210.085 91.4714 211.029 89.2578C211.973 87.0117 213.145 85.1725 214.545 83.7402C215.977 82.2754 217.605 81.2012 219.428 80.5176C221.283 79.834 223.318 79.4922 225.531 79.4922C226.801 79.4922 228.087 79.6061 229.389 79.834C230.691 80.0618 231.863 80.4036 232.904 80.8594C233.946 81.3151 234.792 81.8685 235.443 82.5195C236.094 83.1706 236.42 83.903 236.42 84.7168C236.42 85.3027 236.29 86.0026 236.029 86.8164C235.801 87.5977 235.492 88.3626 235.102 89.1113C234.711 89.8275 234.255 90.446 233.734 90.9668C233.246 91.4551 232.742 91.6992 232.221 91.6992C231.635 91.6992 231.065 91.5365 230.512 91.2109C229.958 90.8529 229.356 90.4785 228.705 90.0879C228.087 89.6973 227.419 89.3392 226.703 89.0137C226.02 88.6556 225.238 88.4766 224.359 88.4766ZM253.705 126.318C251.752 126.318 249.799 125.846 247.846 124.902C245.893 123.926 244.021 122.607 242.23 120.947C240.44 119.287 238.78 117.334 237.25 115.088C235.72 112.809 234.385 110.368 233.246 107.764C232.107 105.127 231.212 102.376 230.561 99.5117C229.91 96.6471 229.584 93.7826 229.584 90.918C229.584 88.7044 230.04 87.1257 230.951 86.1816C231.863 85.2051 233.344 84.7168 235.395 84.7168C237.966 84.7168 239.398 85.7747 239.691 87.8906C240.277 92.3828 241.091 96.4355 242.133 100.049C243.174 103.662 244.395 106.738 245.795 109.277C247.227 111.816 248.806 113.77 250.531 115.137C252.289 116.504 254.145 117.188 256.098 117.188C257.497 117.188 258.816 116.846 260.053 116.162C261.29 115.446 262.364 114.453 263.275 113.184C263.601 112.695 263.812 112.223 263.91 111.768C264.04 111.312 264.138 110.791 264.203 110.205C264.366 107.894 264.545 105.632 264.74 103.418C264.968 101.172 265.18 98.9258 265.375 96.6797C265.44 95.7031 265.57 94.9056 265.766 94.2871C265.961 93.6686 266.254 93.1803 266.645 92.8223C267.035 92.4642 267.54 92.2201 268.158 92.0898C268.809 91.9596 269.623 91.8945 270.6 91.8945C271.706 91.8945 272.65 92.0573 273.432 92.3828C274.213 92.6758 274.848 93.1803 275.336 93.8965C275.824 94.5801 276.166 95.4915 276.361 96.6309C276.589 97.7376 276.703 99.1211 276.703 100.781C276.703 102.214 276.589 103.467 276.361 104.541C276.166 105.583 275.922 106.576 275.629 107.52C275.368 108.431 275.108 109.342 274.848 110.254C274.62 111.133 274.473 112.109 274.408 113.184C274.245 115.885 274.099 118.229 273.969 120.215C273.839 122.168 273.725 123.844 273.627 125.244C273.562 126.644 273.497 127.848 273.432 128.857C273.399 129.867 273.367 130.762 273.334 131.543C273.301 132.357 273.285 133.122 273.285 133.838C273.285 134.554 273.285 135.335 273.285 136.182C273.285 137.712 273.35 139.372 273.48 141.162C273.611 142.985 273.741 144.727 273.871 146.387C274.034 148.047 274.18 149.512 274.311 150.781C274.441 152.051 274.506 152.93 274.506 153.418C274.506 154.036 274.311 154.622 273.92 155.176C273.529 155.729 273.008 156.217 272.357 156.641C271.706 157.064 270.941 157.389 270.062 157.617C269.184 157.878 268.256 158.008 267.279 158.008C266.433 158.008 265.749 157.715 265.229 157.129C264.74 156.576 264.464 155.827 264.398 154.883C264.301 153.646 264.219 152.132 264.154 150.342C264.089 148.584 264.024 146.696 263.959 144.678C263.894 142.692 263.845 140.658 263.812 138.574C263.812 136.523 263.796 134.603 263.764 132.812C263.731 131.055 263.715 129.508 263.715 128.174C263.715 126.839 263.715 125.879 263.715 125.293C263.715 124.707 263.65 124.3 263.52 124.072C263.389 123.812 263.145 123.682 262.787 123.682C262.592 123.682 262.331 123.747 262.006 123.877C261.68 123.975 261.306 124.154 260.883 124.414C259.743 125.098 258.588 125.586 257.416 125.879C256.244 126.172 255.007 126.318 253.705 126.318ZM283.832 107.91C282.921 107.91 282.172 107.536 281.586 106.787C281 106.006 280.707 104.883 280.707 103.418C280.707 102.116 281.293 101.139 282.465 100.488C283.637 99.8372 285.622 99.3815 288.422 99.1211C289.333 99.0234 290.521 98.8932 291.986 98.7305C293.484 98.5352 294.997 98.3561 296.527 98.1934C298.09 97.998 299.555 97.8353 300.922 97.7051C302.322 97.5749 303.412 97.5098 304.193 97.5098C305.398 97.5098 306.326 97.8678 306.977 98.584C307.66 99.3001 308.002 100.57 308.002 102.393C308.002 104.281 306.13 105.42 302.387 105.811C301.898 105.876 301.166 105.973 300.189 106.104C299.245 106.201 298.171 106.331 296.967 106.494C295.762 106.657 294.493 106.82 293.158 106.982C291.856 107.145 290.603 107.292 289.398 107.422C288.194 107.552 287.087 107.666 286.078 107.764C285.102 107.861 284.353 107.91 283.832 107.91ZM317.865 141.699C318.712 141.699 319.411 141.569 319.965 141.309C320.518 141.081 320.958 140.641 321.283 139.99C321.609 139.339 321.837 138.46 321.967 137.354C322.097 136.247 322.162 134.831 322.162 133.105C322.162 126.432 321.918 120.687 321.43 115.869C320.974 111.051 320.469 106.982 319.916 103.662C319.363 100.342 318.842 97.6888 318.354 95.7031C317.898 93.6849 317.67 92.1549 317.67 91.1133C317.67 90.0065 318.174 89.1113 319.184 88.4277C320.193 87.7441 321.576 87.3698 323.334 87.3047C325.84 87.3047 327.354 88.0371 327.875 89.502C328.559 91.8132 329.177 94.4824 329.73 97.5098C330.316 100.505 330.805 103.743 331.195 107.227C331.618 110.71 331.928 114.355 332.123 118.164C332.351 121.94 332.465 125.749 332.465 129.59C332.465 133.659 332.221 137.077 331.732 139.844C331.277 142.643 330.479 144.889 329.34 146.582C328.233 148.275 326.768 149.479 324.945 150.195C323.122 150.944 320.86 151.318 318.158 151.318C316.563 151.318 314.887 151.107 313.129 150.684C311.404 150.293 309.711 149.756 308.051 149.072C306.391 148.421 304.828 147.64 303.363 146.729C301.866 145.817 300.564 144.857 299.457 143.848C298.318 142.871 297.423 141.862 296.771 140.82C296.088 139.779 295.746 138.77 295.746 137.793C295.746 137.305 295.941 136.751 296.332 136.133C296.723 135.514 297.211 134.928 297.797 134.375C298.35 133.854 298.952 133.415 299.604 133.057C300.255 132.699 300.84 132.52 301.361 132.52C301.98 132.52 302.631 132.747 303.314 133.203C303.965 133.659 304.682 134.229 305.463 134.912C306.212 135.596 307.025 136.328 307.904 137.109C308.751 137.891 309.678 138.623 310.688 139.307C311.729 139.99 312.836 140.56 314.008 141.016C315.18 141.471 316.465 141.699 317.865 141.699ZM324.262 79.1992C323.318 79.1667 322.439 79.0039 321.625 78.7109C320.844 78.418 320.16 78.0273 319.574 77.5391C318.988 77.0182 318.516 76.4323 318.158 75.7812C317.833 75.0977 317.67 74.3652 317.67 73.584C317.67 72.2168 318.191 71.11 319.232 70.2637C320.274 69.4173 321.674 68.9941 323.432 68.9941C324.311 68.9941 325.141 69.1569 325.922 69.4824C326.736 69.7754 327.452 70.1986 328.07 70.752C328.689 71.2728 329.177 71.8913 329.535 72.6074C329.893 73.291 330.072 74.0234 330.072 74.8047C330.072 76.2044 329.568 77.2949 328.559 78.0762C327.549 78.8249 326.117 79.1992 324.262 79.1992ZM355.268 82.6172C357.449 82.6172 359.695 82.9102 362.006 83.4961C364.317 84.0495 366.433 84.7819 368.354 85.6934C370.274 86.5723 371.853 87.5651 373.09 88.6719C374.327 89.7786 374.945 90.8529 374.945 91.8945C374.945 92.4154 374.717 93.0013 374.262 93.6523C373.806 94.2708 373.253 94.873 372.602 95.459C371.951 96.0124 371.234 96.4844 370.453 96.875C369.704 97.2331 369.037 97.4121 368.451 97.4121C367.67 97.4121 366.791 97.0866 365.814 96.4355C364.87 95.7845 363.812 95.0684 362.641 94.2871C361.501 93.4733 360.248 92.7409 358.881 92.0898C357.514 91.4388 356.033 91.1133 354.438 91.1133C353.396 91.1133 352.533 91.3737 351.85 91.8945C351.199 92.3828 350.873 93.0827 350.873 93.9941C350.873 94.8079 351.264 95.638 352.045 96.4844C352.826 97.2982 353.852 98.1445 355.121 99.0234C356.423 99.9023 357.888 100.83 359.516 101.807C361.143 102.783 362.803 103.825 364.496 104.932C366.221 106.038 367.898 107.243 369.525 108.545C371.153 109.847 372.602 111.263 373.871 112.793C375.173 114.323 376.215 115.999 376.996 117.822C377.777 119.613 378.168 121.566 378.168 123.682C378.168 125.505 377.842 127.165 377.191 128.662C376.54 130.16 375.613 131.445 374.408 132.52C373.204 133.594 371.771 134.424 370.111 135.01C368.451 135.596 366.628 135.889 364.643 135.889C362.136 135.889 359.825 135.498 357.709 134.717C355.593 133.968 353.77 132.926 352.24 131.592C350.71 130.257 349.506 128.662 348.627 126.807C347.781 124.951 347.357 122.917 347.357 120.703C347.357 117.839 347.862 115.755 348.871 114.453C349.913 113.151 351.54 112.5 353.754 112.5C355.121 112.5 356.212 112.76 357.025 113.281C357.839 113.802 358.246 114.437 358.246 115.186C358.246 115.576 358.181 115.983 358.051 116.406C357.921 116.797 357.774 117.22 357.611 117.676C357.481 118.099 357.351 118.555 357.221 119.043C357.123 119.531 357.074 120.02 357.074 120.508C357.074 121.354 357.27 122.168 357.66 122.949C358.051 123.73 358.572 124.414 359.223 125C359.906 125.618 360.688 126.107 361.566 126.465C362.445 126.823 363.373 127.002 364.35 127.002C366.954 127.002 368.256 125.928 368.256 123.779C368.256 122.087 367.589 120.492 366.254 118.994C364.919 117.464 363.243 115.983 361.225 114.551C359.206 113.086 357.025 111.621 354.682 110.156C352.37 108.691 350.206 107.161 348.188 105.566C346.169 103.971 344.493 102.279 343.158 100.488C341.824 98.6654 341.156 96.696 341.156 94.5801C341.156 92.8223 341.514 91.2109 342.23 89.7461C342.979 88.2812 343.988 87.028 345.258 85.9863C346.527 84.9121 348.008 84.082 349.701 83.4961C351.426 82.9102 353.282 82.6172 355.268 82.6172ZM380.561 108.789C380.561 108.236 380.626 107.617 380.756 106.934C380.886 106.25 380.951 105.501 380.951 104.688C380.951 104.134 380.707 103.711 380.219 103.418C379.763 103.125 379.242 102.799 378.656 102.441C378.07 102.083 377.533 101.628 377.045 101.074C376.589 100.521 376.361 99.7233 376.361 98.6816C376.361 97.9329 376.557 97.1842 376.947 96.4355C377.37 95.6868 377.973 95.0033 378.754 94.3848C380.674 92.9525 382.66 91.6667 384.711 90.5273C386.794 89.388 388.861 88.4277 390.912 87.6465C392.995 86.8652 395.046 86.263 397.064 85.8398C399.083 85.4167 401.02 85.2051 402.875 85.2051C406 85.2051 408.93 85.791 411.664 86.9629C414.431 88.1022 416.824 89.681 418.842 91.6992C420.893 93.6849 422.504 96.0286 423.676 98.7305C424.88 101.4 425.482 104.264 425.482 107.324C425.482 110.319 424.848 113.167 423.578 115.869C422.341 118.538 420.665 120.882 418.549 122.9C416.433 124.919 413.943 126.514 411.078 127.686C408.246 128.89 405.251 129.492 402.094 129.492C399.001 129.492 396.137 128.971 393.5 127.93C390.863 126.888 388.585 125.456 386.664 123.633C384.743 121.777 383.246 119.596 382.172 117.09C381.098 114.551 380.561 111.784 380.561 108.789ZM403.168 120.703C404.535 120.703 405.951 120.426 407.416 119.873C408.881 119.32 410.215 118.522 411.42 117.48C412.657 116.406 413.666 115.104 414.447 113.574C415.261 112.044 415.668 110.319 415.668 108.398C415.668 106.445 415.31 104.622 414.594 102.93C413.878 101.237 412.885 99.7721 411.615 98.5352C410.378 97.2656 408.897 96.2728 407.172 95.5566C405.479 94.8405 403.64 94.4824 401.654 94.4824C398.041 94.4824 395.274 95.4264 393.354 97.3145C391.433 99.1699 390.473 102.035 390.473 105.908C390.473 108.024 390.782 109.993 391.4 111.816C392.051 113.607 392.947 115.169 394.086 116.504C395.225 117.806 396.56 118.831 398.09 119.58C399.652 120.329 401.345 120.703 403.168 120.703ZM432.709 85.5957C432.709 85.1074 432.921 84.6354 433.344 84.1797C433.767 83.6914 434.32 83.2682 435.004 82.9102C435.688 82.5195 436.452 82.2103 437.299 81.9824C438.178 81.722 439.057 81.5918 439.936 81.5918C440.424 81.5918 440.831 81.722 441.156 81.9824C441.514 82.2428 441.824 82.7474 442.084 83.4961C442.344 84.2122 442.572 85.2376 442.768 86.5723C442.995 87.8743 443.207 89.5833 443.402 91.6992C443.533 92.3503 443.646 92.8548 443.744 93.2129C443.874 93.5384 444.037 93.7012 444.232 93.7012C444.525 93.7012 444.818 93.1966 445.111 92.1875C447.488 85.319 450.922 81.8848 455.414 81.8848C457.497 81.8848 459.385 82.5358 461.078 83.8379C462.803 85.14 464.398 87.2721 465.863 90.2344C467.361 93.1641 468.777 97.0378 470.111 101.855C471.446 106.641 472.781 112.549 474.115 119.58C474.18 119.938 474.229 120.264 474.262 120.557C474.294 120.85 474.311 121.126 474.311 121.387C474.311 122.135 474.132 122.786 473.773 123.34C473.448 123.861 473.008 124.3 472.455 124.658C471.902 124.984 471.283 125.228 470.6 125.391C469.916 125.586 469.232 125.684 468.549 125.684C467.182 125.684 466.189 125.537 465.57 125.244C464.984 124.951 464.61 124.398 464.447 123.584C463.503 118.636 462.576 114.242 461.664 110.4C460.785 106.559 459.906 103.337 459.027 100.732C458.181 98.0957 457.335 96.0938 456.488 94.7266C455.642 93.3594 454.796 92.6758 453.949 92.6758C453.103 92.6758 452.305 93.2129 451.557 94.2871C450.84 95.3288 450.141 96.9727 449.457 99.2188C448.773 101.465 448.106 104.313 447.455 107.764C446.837 111.214 446.234 115.332 445.648 120.117C445.486 121.419 444.835 122.461 443.695 123.242C442.556 124.023 441.107 124.414 439.35 124.414C438.178 124.414 437.283 124.17 436.664 123.682C436.046 123.193 435.704 122.526 435.639 121.68C435.346 114.909 435.02 109.342 434.662 104.98C434.337 100.586 434.027 97.0703 433.734 94.4336C433.441 91.7643 433.197 89.7786 433.002 88.4766C432.807 87.1745 432.709 86.2142 432.709 85.5957Z" fill="#CACACA"/>
<path d="M79.3691 133.203C79.1738 131.868 78.5716 131.201 77.5625 131.201C77.2044 131.201 76.765 131.299 76.2441 131.494C75.235 131.95 74.0632 132.471 72.7285 133.057C71.3939 133.643 70.1081 134.196 68.8711 134.717C67.6341 135.27 66.5436 135.726 65.5996 136.084C64.6882 136.442 64.151 136.621 63.9883 136.621C63.5 136.621 63.0443 136.458 62.6211 136.133C62.1979 135.84 61.8236 135.449 61.498 134.961C61.2051 134.473 60.9609 133.919 60.7656 133.301C60.5703 132.682 60.4727 132.08 60.4727 131.494C60.4727 130.843 60.6029 130.241 60.8633 129.688C61.1237 129.134 61.5632 128.711 62.1816 128.418C64.3952 127.311 66.625 126.27 68.8711 125.293C71.1497 124.316 73.4447 123.356 75.7559 122.412C76.9603 121.924 77.5625 121.012 77.5625 119.678L76.8789 112.5C76.6836 111.23 76.2116 110.596 75.4629 110.596C74.9421 110.596 74.3724 111.003 73.7539 111.816C70.7266 115.723 67.4876 118.587 64.0371 120.41C60.6191 122.201 56.8919 123.096 52.8555 123.096C50.4466 123.096 48.2168 122.754 46.166 122.07C44.1478 121.387 42.4062 120.443 40.9414 119.238C39.4766 118.034 38.321 116.602 37.4746 114.941C36.6608 113.249 36.2539 111.41 36.2539 109.424C36.2539 107.21 36.7096 105.094 37.6211 103.076C38.5326 101.058 39.7695 99.1862 41.332 97.4609C42.8945 95.7357 44.7012 94.1732 46.752 92.7734C48.8353 91.3411 51.0163 90.1204 53.2949 89.1113C55.6061 88.1022 57.9499 87.3372 60.3262 86.8164C62.735 86.263 65.0462 85.9863 67.2598 85.9863C69.6035 85.9863 71.5729 86.1165 73.168 86.377C74.7956 86.6374 76.1302 86.9141 77.1719 87.207C77.6276 86.6536 78.0833 86.2467 78.5391 85.9863C79.0273 85.7259 79.4993 85.5957 79.9551 85.5957C80.5736 85.5957 81.2246 85.7096 81.9082 85.9375C82.6243 86.1328 83.2754 86.4095 83.8613 86.7676C84.4798 87.1257 84.9844 87.5326 85.375 87.9883C85.7656 88.444 85.9609 88.916 85.9609 89.4043C85.9609 89.7624 85.8958 90.1042 85.7656 90.4297C85.6354 90.7552 85.4889 91.0807 85.3262 91.4062C85.196 91.6992 85.0658 92.0247 84.9355 92.3828C84.8379 92.7409 84.7891 93.1152 84.7891 93.5059C84.7891 94.2871 84.8542 95.4753 84.9844 97.0703C85.1471 98.6654 85.3424 100.488 85.5703 102.539C85.8307 104.557 86.0911 106.689 86.3516 108.936C86.6445 111.182 86.9212 113.33 87.1816 115.381C87.377 116.781 88.0443 117.48 89.1836 117.48C89.2812 117.48 89.4115 117.464 89.5742 117.432C89.737 117.399 89.8997 117.35 90.0625 117.285C91.332 116.927 92.6504 116.569 94.0176 116.211C95.3848 115.82 96.6543 115.479 97.8262 115.186C99.0306 114.893 100.056 114.665 100.902 114.502C101.749 114.307 102.302 114.209 102.562 114.209C103.604 114.209 104.385 114.583 104.906 115.332C105.427 116.081 105.688 117.106 105.688 118.408C105.688 119.417 105.508 120.361 105.15 121.24C104.792 122.119 104.271 122.64 103.588 122.803C101.342 123.291 99.1608 123.828 97.0449 124.414C94.929 124.967 92.7969 125.57 90.6484 126.221C89.3789 126.611 88.7441 127.441 88.7441 128.711L91.2832 149.316C91.2832 150.033 91.0553 150.7 90.5996 151.318C90.1764 151.937 89.623 152.474 88.9395 152.93C88.2559 153.385 87.4909 153.743 86.6445 154.004C85.7982 154.264 84.9681 154.395 84.1543 154.395C83.4056 154.395 82.7871 154.183 82.2988 153.76C81.8105 153.369 81.5339 152.848 81.4688 152.197C81.1758 149.04 80.834 145.898 80.4434 142.773C80.0853 139.648 79.7272 136.458 79.3691 133.203ZM54.9551 114.014C56.5827 114.014 58.1615 113.786 59.6914 113.33C61.2539 112.842 62.7676 112.012 64.2324 110.84C65.7298 109.668 67.1947 108.089 68.627 106.104C70.0592 104.085 71.4753 101.546 72.875 98.4863C72.9727 98.2259 73.054 97.9818 73.1191 97.7539C73.2168 97.526 73.2656 97.3145 73.2656 97.1191C73.2656 96.0449 72.6309 95.4102 71.3613 95.2148C70.2871 95.0195 69.0501 94.9219 67.6504 94.9219C64.9811 94.9219 62.3607 95.2799 59.7891 95.9961C57.2174 96.7122 54.9225 97.6562 52.9043 98.8281C50.8861 100 49.2585 101.335 48.0215 102.832C46.7845 104.329 46.166 105.859 46.166 107.422C46.166 109.57 46.9147 111.214 48.4121 112.354C49.9095 113.46 52.0905 114.014 54.9551 114.014Z" fill="black"/>
</svg>
