<svg width="509" height="214" viewBox="0 0 509 214" fill="none" xmlns="http://www.w3.org/2000/svg">
<path d="M103.65 107.715C103.65 112.077 104.318 115.446 105.652 117.822C106.987 120.199 108.924 121.387 111.463 121.387C113.058 121.387 114.523 120.915 115.857 119.971C117.225 119.027 118.396 117.708 119.373 116.016C120.35 114.323 121.098 112.321 121.619 110.01C122.173 107.666 122.449 105.127 122.449 102.393C122.449 100.732 122.384 99.3001 122.254 98.0957C122.124 96.8587 121.977 95.7682 121.814 94.8242C121.684 93.8477 121.554 92.985 121.424 92.2363C121.294 91.4876 121.229 90.7715 121.229 90.0879C121.229 89.0462 121.668 88.2975 122.547 87.8418C123.426 87.3535 124.826 87.1094 126.746 87.1094C129.188 87.1094 131.076 87.6628 132.41 88.7695C133.777 89.8763 134.461 91.4876 134.461 93.6035C134.461 99.3652 133.891 104.541 132.752 109.131C131.645 113.721 130.034 117.627 127.918 120.85C125.835 124.04 123.296 126.497 120.301 128.223C117.306 129.948 113.953 130.811 110.242 130.811C107.605 130.811 105.164 130.257 102.918 129.15C100.704 128.076 98.7839 126.562 97.1562 124.609C95.5612 122.624 94.3079 120.28 93.3965 117.578C92.485 114.844 92.0293 111.849 92.0293 108.594C92.0293 107.357 92.0618 106.038 92.127 104.639C92.1921 103.239 92.2897 101.742 92.4199 100.146C92.5501 98.5189 92.7129 96.7611 92.9082 94.873C93.1361 92.985 93.3802 90.9342 93.6406 88.7207C93.7383 87.7767 94.1777 87.028 94.959 86.4746C95.7728 85.8887 96.7982 85.5957 98.0352 85.5957C99.1419 85.5957 100.184 85.7096 101.16 85.9375C102.137 86.1654 102.967 86.4746 103.65 86.8652C104.367 87.2559 104.92 87.7116 105.311 88.2324C105.734 88.7533 105.945 89.3066 105.945 89.8926C105.945 90.4785 105.815 91.4062 105.555 92.6758C105.327 93.9128 105.066 95.3451 104.773 96.9727C104.513 98.5677 104.253 100.309 103.992 102.197C103.764 104.053 103.65 105.892 103.65 107.715ZM181.922 114.307C182.866 113.493 183.794 113.086 184.705 113.086C185.226 113.086 185.698 113.216 186.121 113.477C186.544 113.737 187.016 114.144 187.537 114.697C188.025 115.446 188.367 116.064 188.562 116.553C188.79 117.008 188.904 117.464 188.904 117.92C188.904 118.896 188.416 119.824 187.439 120.703C185.877 122.005 184.184 123.177 182.361 124.219C180.538 125.228 178.634 126.09 176.648 126.807C174.663 127.523 172.612 128.06 170.496 128.418C168.38 128.809 166.281 129.004 164.197 129.004C161.561 129.004 159.087 128.662 156.775 127.979C154.464 127.327 152.397 126.383 150.574 125.146C148.784 123.91 147.27 122.428 146.033 120.703C144.796 118.945 143.917 116.976 143.396 114.795C143.104 113.883 142.827 113.298 142.566 113.037C142.339 112.744 141.948 112.598 141.395 112.598C140.19 112.598 139.262 112.305 138.611 111.719C137.96 111.133 137.635 110.286 137.635 109.18C137.635 108.724 137.667 108.431 137.732 108.301L137.83 107.324C137.993 106.152 138.302 105.306 138.758 104.785C139.246 104.264 139.995 104.004 141.004 104.004H141.736C143.104 104.004 144.064 103.369 144.617 102.1C145.626 99.8535 146.912 97.8027 148.475 95.9473C150.037 94.0918 151.795 92.513 153.748 91.2109C155.701 89.8763 157.785 88.8509 159.998 88.1348C162.244 87.3861 164.523 87.0117 166.834 87.0117C169.243 87.0117 171.489 87.3698 173.572 88.0859C175.688 88.7695 177.527 89.7298 179.09 90.9668C180.652 92.2038 181.873 93.6523 182.752 95.3125C183.663 96.9727 184.119 98.763 184.119 100.684C184.119 102.018 183.859 103.239 183.338 104.346C182.817 105.452 182.068 106.429 181.092 107.275C180.115 108.089 178.927 108.757 177.527 109.277C176.16 109.798 174.598 110.14 172.84 110.303L155.896 112.012C155.245 112.012 154.708 112.174 154.285 112.5C153.895 112.826 153.699 113.265 153.699 113.818C153.699 114.665 154.008 115.479 154.627 116.26C155.278 117.041 156.124 117.741 157.166 118.359C158.24 118.945 159.461 119.417 160.828 119.775C162.228 120.133 163.66 120.312 165.125 120.312C166.525 120.312 167.957 120.182 169.422 119.922C170.919 119.629 172.384 119.222 173.816 118.701C175.281 118.18 176.697 117.562 178.064 116.846C179.432 116.097 180.717 115.251 181.922 114.307ZM171.033 101.709C171.521 101.611 171.945 101.383 172.303 101.025C172.661 100.635 172.84 100.163 172.84 99.6094C172.84 99.1211 172.661 98.6654 172.303 98.2422C171.945 97.819 171.456 97.4447 170.838 97.1191C170.219 96.7611 169.503 96.4844 168.689 96.2891C167.876 96.0938 167.013 95.9961 166.102 95.9961C164.767 95.9961 163.4 96.1914 162 96.582C160.6 96.9727 159.331 97.4935 158.191 98.1445C157.052 98.763 156.124 99.4629 155.408 100.244C154.692 100.993 154.334 101.742 154.334 102.49C154.334 103.239 154.79 103.613 155.701 103.613C156.255 103.613 157.15 103.548 158.387 103.418C159.624 103.288 160.991 103.141 162.488 102.979C163.986 102.783 165.499 102.572 167.029 102.344C168.559 102.116 169.894 101.904 171.033 101.709ZM218.494 88.4766C217.29 88.4766 216.232 88.8021 215.32 89.4531C214.409 90.0716 213.628 90.9505 212.977 92.0898C212.326 93.1966 211.788 94.515 211.365 96.0449C210.942 97.5423 210.6 99.1862 210.34 100.977C210.079 102.767 209.9 104.639 209.803 106.592C209.705 108.545 209.656 110.514 209.656 112.5C209.656 115.104 209.754 117.676 209.949 120.215C210.177 122.721 210.291 125.049 210.291 127.197C210.291 128.597 209.77 129.688 208.729 130.469C207.687 131.283 206.206 131.689 204.285 131.689C203.927 131.689 203.52 131.657 203.064 131.592C202.609 131.527 202.169 131.396 201.746 131.201C201.355 131.006 200.997 130.729 200.672 130.371C200.379 130.046 200.216 129.59 200.184 129.004C199.891 126.139 199.467 123.21 198.914 120.215C198.361 117.22 197.661 114.242 196.814 111.279C196.001 108.285 195.008 105.322 193.836 102.393C192.697 99.4629 191.378 96.5983 189.881 93.7988C189.62 93.3105 189.393 92.8548 189.197 92.4316C189.035 92.0085 188.953 91.6016 188.953 91.2109C188.953 90.7227 189.165 90.2018 189.588 89.6484C190.044 89.0625 190.597 88.5254 191.248 88.0371C191.932 87.5488 192.664 87.1582 193.445 86.8652C194.259 86.5397 195.04 86.377 195.789 86.377C197.026 86.377 198.117 87.2396 199.061 88.9648C200.005 90.6576 200.883 93.3757 201.697 97.1191C201.86 97.7702 201.99 98.2259 202.088 98.4863C202.186 98.7467 202.316 98.877 202.479 98.877C202.837 98.877 203.064 98.3236 203.162 97.2168C203.553 94.1243 204.22 91.4714 205.164 89.2578C206.108 87.0117 207.28 85.1725 208.68 83.7402C210.112 82.2754 211.74 81.2012 213.562 80.5176C215.418 79.834 217.452 79.4922 219.666 79.4922C220.936 79.4922 222.221 79.6061 223.523 79.834C224.826 80.0618 225.997 80.4036 227.039 80.8594C228.081 81.3151 228.927 81.8685 229.578 82.5195C230.229 83.1706 230.555 83.903 230.555 84.7168C230.555 85.3027 230.424 86.0026 230.164 86.8164C229.936 87.5977 229.627 88.3626 229.236 89.1113C228.846 89.8275 228.39 90.446 227.869 90.9668C227.381 91.4551 226.876 91.6992 226.355 91.6992C225.77 91.6992 225.2 91.5365 224.646 91.2109C224.093 90.8529 223.491 90.4785 222.84 90.0879C222.221 89.6973 221.554 89.3392 220.838 89.0137C220.154 88.6556 219.373 88.4766 218.494 88.4766ZM259.57 126.318C257.617 126.318 255.664 125.846 253.711 124.902C251.758 123.926 249.886 122.607 248.096 120.947C246.305 119.287 244.645 117.334 243.115 115.088C241.585 112.809 240.251 110.368 239.111 107.764C237.972 105.127 237.077 102.376 236.426 99.5117C235.775 96.6471 235.449 93.7826 235.449 90.918C235.449 88.7044 235.905 87.1257 236.816 86.1816C237.728 85.2051 239.209 84.7168 241.26 84.7168C243.831 84.7168 245.264 85.7747 245.557 87.8906C246.143 92.3828 246.956 96.4355 247.998 100.049C249.04 103.662 250.26 106.738 251.66 109.277C253.092 111.816 254.671 113.77 256.396 115.137C258.154 116.504 260.01 117.188 261.963 117.188C263.363 117.188 264.681 116.846 265.918 116.162C267.155 115.446 268.229 114.453 269.141 113.184C269.466 112.695 269.678 112.223 269.775 111.768C269.906 111.312 270.003 110.791 270.068 110.205C270.231 107.894 270.41 105.632 270.605 103.418C270.833 101.172 271.045 98.9258 271.24 96.6797C271.305 95.7031 271.436 94.9056 271.631 94.2871C271.826 93.6686 272.119 93.1803 272.51 92.8223C272.9 92.4642 273.405 92.2201 274.023 92.0898C274.674 91.9596 275.488 91.8945 276.465 91.8945C277.572 91.8945 278.516 92.0573 279.297 92.3828C280.078 92.6758 280.713 93.1803 281.201 93.8965C281.689 94.5801 282.031 95.4915 282.227 96.6309C282.454 97.7376 282.568 99.1211 282.568 100.781C282.568 102.214 282.454 103.467 282.227 104.541C282.031 105.583 281.787 106.576 281.494 107.52C281.234 108.431 280.973 109.342 280.713 110.254C280.485 111.133 280.339 112.109 280.273 113.184C280.111 115.885 279.964 118.229 279.834 120.215C279.704 122.168 279.59 123.844 279.492 125.244C279.427 126.644 279.362 127.848 279.297 128.857C279.264 129.867 279.232 130.762 279.199 131.543C279.167 132.357 279.15 133.122 279.15 133.838C279.15 134.554 279.15 135.335 279.15 136.182C279.15 137.712 279.215 139.372 279.346 141.162C279.476 142.985 279.606 144.727 279.736 146.387C279.899 148.047 280.046 149.512 280.176 150.781C280.306 152.051 280.371 152.93 280.371 153.418C280.371 154.036 280.176 154.622 279.785 155.176C279.395 155.729 278.874 156.217 278.223 156.641C277.572 157.064 276.807 157.389 275.928 157.617C275.049 157.878 274.121 158.008 273.145 158.008C272.298 158.008 271.615 157.715 271.094 157.129C270.605 156.576 270.329 155.827 270.264 154.883C270.166 153.646 270.085 152.132 270.02 150.342C269.954 148.584 269.889 146.696 269.824 144.678C269.759 142.692 269.71 140.658 269.678 138.574C269.678 136.523 269.661 134.603 269.629 132.812C269.596 131.055 269.58 129.508 269.58 128.174C269.58 126.839 269.58 125.879 269.58 125.293C269.58 124.707 269.515 124.3 269.385 124.072C269.255 123.812 269.01 123.682 268.652 123.682C268.457 123.682 268.197 123.747 267.871 123.877C267.546 123.975 267.171 124.154 266.748 124.414C265.609 125.098 264.453 125.586 263.281 125.879C262.109 126.172 260.872 126.318 259.57 126.318ZM289.697 107.91C288.786 107.91 288.037 107.536 287.451 106.787C286.865 106.006 286.572 104.883 286.572 103.418C286.572 102.116 287.158 101.139 288.33 100.488C289.502 99.8372 291.488 99.3815 294.287 99.1211C295.199 99.0234 296.387 98.8932 297.852 98.7305C299.349 98.5352 300.863 98.3561 302.393 98.1934C303.955 97.998 305.42 97.8353 306.787 97.7051C308.187 97.5749 309.277 97.5098 310.059 97.5098C311.263 97.5098 312.191 97.8678 312.842 98.584C313.525 99.3001 313.867 100.57 313.867 102.393C313.867 104.281 311.995 105.42 308.252 105.811C307.764 105.876 307.031 105.973 306.055 106.104C305.111 106.201 304.036 106.331 302.832 106.494C301.628 106.657 300.358 106.82 299.023 106.982C297.721 107.145 296.468 107.292 295.264 107.422C294.059 107.552 292.952 107.666 291.943 107.764C290.967 107.861 290.218 107.91 289.697 107.91ZM323.73 141.699C324.577 141.699 325.277 141.569 325.83 141.309C326.383 141.081 326.823 140.641 327.148 139.99C327.474 139.339 327.702 138.46 327.832 137.354C327.962 136.247 328.027 134.831 328.027 133.105C328.027 126.432 327.783 120.687 327.295 115.869C326.839 111.051 326.335 106.982 325.781 103.662C325.228 100.342 324.707 97.6888 324.219 95.7031C323.763 93.6849 323.535 92.1549 323.535 91.1133C323.535 90.0065 324.04 89.1113 325.049 88.4277C326.058 87.7441 327.441 87.3698 329.199 87.3047C331.706 87.3047 333.219 88.0371 333.74 89.502C334.424 91.8132 335.042 94.4824 335.596 97.5098C336.182 100.505 336.67 103.743 337.061 107.227C337.484 110.71 337.793 114.355 337.988 118.164C338.216 121.94 338.33 125.749 338.33 129.59C338.33 133.659 338.086 137.077 337.598 139.844C337.142 142.643 336.344 144.889 335.205 146.582C334.098 148.275 332.633 149.479 330.811 150.195C328.988 150.944 326.725 151.318 324.023 151.318C322.428 151.318 320.752 151.107 318.994 150.684C317.269 150.293 315.576 149.756 313.916 149.072C312.256 148.421 310.693 147.64 309.229 146.729C307.731 145.817 306.429 144.857 305.322 143.848C304.183 142.871 303.288 141.862 302.637 140.82C301.953 139.779 301.611 138.77 301.611 137.793C301.611 137.305 301.807 136.751 302.197 136.133C302.588 135.514 303.076 134.928 303.662 134.375C304.215 133.854 304.818 133.415 305.469 133.057C306.12 132.699 306.706 132.52 307.227 132.52C307.845 132.52 308.496 132.747 309.18 133.203C309.831 133.659 310.547 134.229 311.328 134.912C312.077 135.596 312.891 136.328 313.77 137.109C314.616 137.891 315.544 138.623 316.553 139.307C317.594 139.99 318.701 140.56 319.873 141.016C321.045 141.471 322.331 141.699 323.73 141.699ZM330.127 79.1992C329.183 79.1667 328.304 79.0039 327.49 78.7109C326.709 78.418 326.025 78.0273 325.439 77.5391C324.854 77.0182 324.382 76.4323 324.023 75.7812C323.698 75.0977 323.535 74.3652 323.535 73.584C323.535 72.2168 324.056 71.11 325.098 70.2637C326.139 69.4173 327.539 68.9941 329.297 68.9941C330.176 68.9941 331.006 69.1569 331.787 69.4824C332.601 69.7754 333.317 70.1986 333.936 70.752C334.554 71.2728 335.042 71.8913 335.4 72.6074C335.758 73.291 335.938 74.0234 335.938 74.8047C335.938 76.2044 335.433 77.2949 334.424 78.0762C333.415 78.8249 331.982 79.1992 330.127 79.1992ZM361.133 82.6172C363.314 82.6172 365.56 82.9102 367.871 83.4961C370.182 84.0495 372.298 84.7819 374.219 85.6934C376.139 86.5723 377.718 87.5651 378.955 88.6719C380.192 89.7786 380.811 90.8529 380.811 91.8945C380.811 92.4154 380.583 93.0013 380.127 93.6523C379.671 94.2708 379.118 94.873 378.467 95.459C377.816 96.0124 377.1 96.4844 376.318 96.875C375.57 97.2331 374.902 97.4121 374.316 97.4121C373.535 97.4121 372.656 97.0866 371.68 96.4355C370.736 95.7845 369.678 95.0684 368.506 94.2871C367.367 93.4733 366.113 92.7409 364.746 92.0898C363.379 91.4388 361.898 91.1133 360.303 91.1133C359.261 91.1133 358.398 91.3737 357.715 91.8945C357.064 92.3828 356.738 93.0827 356.738 93.9941C356.738 94.8079 357.129 95.638 357.91 96.4844C358.691 97.2982 359.717 98.1445 360.986 99.0234C362.288 99.9023 363.753 100.83 365.381 101.807C367.008 102.783 368.669 103.825 370.361 104.932C372.087 106.038 373.763 107.243 375.391 108.545C377.018 109.847 378.467 111.263 379.736 112.793C381.038 114.323 382.08 115.999 382.861 117.822C383.643 119.613 384.033 121.566 384.033 123.682C384.033 125.505 383.708 127.165 383.057 128.662C382.406 130.16 381.478 131.445 380.273 132.52C379.069 133.594 377.637 134.424 375.977 135.01C374.316 135.596 372.493 135.889 370.508 135.889C368.001 135.889 365.69 135.498 363.574 134.717C361.458 133.968 359.635 132.926 358.105 131.592C356.576 130.257 355.371 128.662 354.492 126.807C353.646 124.951 353.223 122.917 353.223 120.703C353.223 117.839 353.727 115.755 354.736 114.453C355.778 113.151 357.406 112.5 359.619 112.5C360.986 112.5 362.077 112.76 362.891 113.281C363.704 113.802 364.111 114.437 364.111 115.186C364.111 115.576 364.046 115.983 363.916 116.406C363.786 116.797 363.639 117.22 363.477 117.676C363.346 118.099 363.216 118.555 363.086 119.043C362.988 119.531 362.939 120.02 362.939 120.508C362.939 121.354 363.135 122.168 363.525 122.949C363.916 123.73 364.437 124.414 365.088 125C365.771 125.618 366.553 126.107 367.432 126.465C368.311 126.823 369.238 127.002 370.215 127.002C372.819 127.002 374.121 125.928 374.121 123.779C374.121 122.087 373.454 120.492 372.119 118.994C370.785 117.464 369.108 115.983 367.09 114.551C365.072 113.086 362.891 111.621 360.547 110.156C358.236 108.691 356.071 107.161 354.053 105.566C352.035 103.971 350.358 102.279 349.023 100.488C347.689 98.6654 347.021 96.696 347.021 94.5801C347.021 92.8223 347.38 91.2109 348.096 89.7461C348.844 88.2812 349.854 87.028 351.123 85.9863C352.393 84.9121 353.874 84.082 355.566 83.4961C357.292 82.9102 359.147 82.6172 361.133 82.6172ZM386.426 108.789C386.426 108.236 386.491 107.617 386.621 106.934C386.751 106.25 386.816 105.501 386.816 104.688C386.816 104.134 386.572 103.711 386.084 103.418C385.628 103.125 385.107 102.799 384.521 102.441C383.936 102.083 383.398 101.628 382.91 101.074C382.454 100.521 382.227 99.7233 382.227 98.6816C382.227 97.9329 382.422 97.1842 382.812 96.4355C383.236 95.6868 383.838 95.0033 384.619 94.3848C386.54 92.9525 388.525 91.6667 390.576 90.5273C392.66 89.388 394.727 88.4277 396.777 87.6465C398.861 86.8652 400.911 86.263 402.93 85.8398C404.948 85.4167 406.885 85.2051 408.74 85.2051C411.865 85.2051 414.795 85.791 417.529 86.9629C420.296 88.1022 422.689 89.681 424.707 91.6992C426.758 93.6849 428.369 96.0286 429.541 98.7305C430.745 101.4 431.348 104.264 431.348 107.324C431.348 110.319 430.713 113.167 429.443 115.869C428.206 118.538 426.53 120.882 424.414 122.9C422.298 124.919 419.808 126.514 416.943 127.686C414.111 128.89 411.117 129.492 407.959 129.492C404.867 129.492 402.002 128.971 399.365 127.93C396.729 126.888 394.45 125.456 392.529 123.633C390.609 121.777 389.111 119.596 388.037 117.09C386.963 114.551 386.426 111.784 386.426 108.789ZM409.033 120.703C410.4 120.703 411.816 120.426 413.281 119.873C414.746 119.32 416.081 118.522 417.285 117.48C418.522 116.406 419.531 115.104 420.312 113.574C421.126 112.044 421.533 110.319 421.533 108.398C421.533 106.445 421.175 104.622 420.459 102.93C419.743 101.237 418.75 99.7721 417.48 98.5352C416.243 97.2656 414.762 96.2728 413.037 95.5566C411.344 94.8405 409.505 94.4824 407.52 94.4824C403.906 94.4824 401.139 95.4264 399.219 97.3145C397.298 99.1699 396.338 102.035 396.338 105.908C396.338 108.024 396.647 109.993 397.266 111.816C397.917 113.607 398.812 115.169 399.951 116.504C401.09 117.806 402.425 118.831 403.955 119.58C405.518 120.329 407.21 120.703 409.033 120.703ZM438.574 85.5957C438.574 85.1074 438.786 84.6354 439.209 84.1797C439.632 83.6914 440.186 83.2682 440.869 82.9102C441.553 82.5195 442.318 82.2103 443.164 81.9824C444.043 81.722 444.922 81.5918 445.801 81.5918C446.289 81.5918 446.696 81.722 447.021 81.9824C447.38 82.2428 447.689 82.7474 447.949 83.4961C448.21 84.2122 448.438 85.2376 448.633 86.5723C448.861 87.8743 449.072 89.5833 449.268 91.6992C449.398 92.3503 449.512 92.8548 449.609 93.2129C449.74 93.5384 449.902 93.7012 450.098 93.7012C450.391 93.7012 450.684 93.1966 450.977 92.1875C453.353 85.319 456.787 81.8848 461.279 81.8848C463.363 81.8848 465.251 82.5358 466.943 83.8379C468.669 85.14 470.264 87.2721 471.729 90.2344C473.226 93.1641 474.642 97.0378 475.977 101.855C477.311 106.641 478.646 112.549 479.98 119.58C480.046 119.938 480.094 120.264 480.127 120.557C480.16 120.85 480.176 121.126 480.176 121.387C480.176 122.135 479.997 122.786 479.639 123.34C479.313 123.861 478.874 124.3 478.32 124.658C477.767 124.984 477.148 125.228 476.465 125.391C475.781 125.586 475.098 125.684 474.414 125.684C473.047 125.684 472.054 125.537 471.436 125.244C470.85 124.951 470.475 124.398 470.312 123.584C469.368 118.636 468.441 114.242 467.529 110.4C466.65 106.559 465.771 103.337 464.893 100.732C464.046 98.0957 463.2 96.0938 462.354 94.7266C461.507 93.3594 460.661 92.6758 459.814 92.6758C458.968 92.6758 458.171 93.2129 457.422 94.2871C456.706 95.3288 456.006 96.9727 455.322 99.2188C454.639 101.465 453.971 104.313 453.32 107.764C452.702 111.214 452.1 115.332 451.514 120.117C451.351 121.419 450.7 122.461 449.561 123.242C448.421 124.023 446.973 124.414 445.215 124.414C444.043 124.414 443.148 124.17 442.529 123.682C441.911 123.193 441.569 122.526 441.504 121.68C441.211 114.909 440.885 109.342 440.527 104.98C440.202 100.586 439.893 97.0703 439.6 94.4336C439.307 91.7643 439.062 89.7786 438.867 88.4766C438.672 87.1745 438.574 86.2142 438.574 85.5957Z" fill="#CACACA"/>
<path d="M69.3691 133.203C69.1738 131.868 68.5716 131.201 67.5625 131.201C67.2044 131.201 66.765 131.299 66.2441 131.494C65.235 131.95 64.0632 132.471 62.7285 133.057C61.3939 133.643 60.1081 134.196 58.8711 134.717C57.6341 135.27 56.5436 135.726 55.5996 136.084C54.6882 136.442 54.151 136.621 53.9883 136.621C53.5 136.621 53.0443 136.458 52.6211 136.133C52.1979 135.84 51.8236 135.449 51.498 134.961C51.2051 134.473 50.9609 133.919 50.7656 133.301C50.5703 132.682 50.4727 132.08 50.4727 131.494C50.4727 130.843 50.6029 130.241 50.8633 129.688C51.1237 129.134 51.5632 128.711 52.1816 128.418C54.3952 127.311 56.625 126.27 58.8711 125.293C61.1497 124.316 63.4447 123.356 65.7559 122.412C66.9603 121.924 67.5625 121.012 67.5625 119.678L66.8789 112.5C66.6836 111.23 66.2116 110.596 65.4629 110.596C64.9421 110.596 64.3724 111.003 63.7539 111.816C60.7266 115.723 57.4876 118.587 54.0371 120.41C50.6191 122.201 46.8919 123.096 42.8555 123.096C40.4466 123.096 38.2168 122.754 36.166 122.07C34.1478 121.387 32.4062 120.443 30.9414 119.238C29.4766 118.034 28.321 116.602 27.4746 114.941C26.6608 113.249 26.2539 111.41 26.2539 109.424C26.2539 107.21 26.7096 105.094 27.6211 103.076C28.5326 101.058 29.7695 99.1862 31.332 97.4609C32.8945 95.7357 34.7012 94.1732 36.752 92.7734C38.8353 91.3411 41.0163 90.1204 43.2949 89.1113C45.6061 88.1022 47.9499 87.3372 50.3262 86.8164C52.735 86.263 55.0462 85.9863 57.2598 85.9863C59.6035 85.9863 61.5729 86.1165 63.168 86.377C64.7956 86.6374 66.1302 86.9141 67.1719 87.207C67.6276 86.6536 68.0833 86.2467 68.5391 85.9863C69.0273 85.7259 69.4993 85.5957 69.9551 85.5957C70.5736 85.5957 71.2246 85.7096 71.9082 85.9375C72.6243 86.1328 73.2754 86.4095 73.8613 86.7676C74.4798 87.1257 74.9844 87.5326 75.375 87.9883C75.7656 88.444 75.9609 88.916 75.9609 89.4043C75.9609 89.7624 75.8958 90.1042 75.7656 90.4297C75.6354 90.7552 75.4889 91.0807 75.3262 91.4062C75.196 91.6992 75.0658 92.0247 74.9355 92.3828C74.8379 92.7409 74.7891 93.1152 74.7891 93.5059C74.7891 94.2871 74.8542 95.4753 74.9844 97.0703C75.1471 98.6654 75.3424 100.488 75.5703 102.539C75.8307 104.557 76.0911 106.689 76.3516 108.936C76.6445 111.182 76.9212 113.33 77.1816 115.381C77.377 116.781 78.0443 117.48 79.1836 117.48C79.2812 117.48 79.4115 117.464 79.5742 117.432C79.737 117.399 79.8997 117.35 80.0625 117.285C81.332 116.927 82.6504 116.569 84.0176 116.211C85.3848 115.82 86.6543 115.479 87.8262 115.186C89.0306 114.893 90.056 114.665 90.9023 114.502C91.7487 114.307 92.3021 114.209 92.5625 114.209C93.6042 114.209 94.3854 114.583 94.9062 115.332C95.4271 116.081 95.6875 117.106 95.6875 118.408C95.6875 119.417 95.5085 120.361 95.1504 121.24C94.7923 122.119 94.2715 122.64 93.5879 122.803C91.3418 123.291 89.1608 123.828 87.0449 124.414C84.929 124.967 82.7969 125.57 80.6484 126.221C79.3789 126.611 78.7441 127.441 78.7441 128.711L81.2832 149.316C81.2832 150.033 81.0553 150.7 80.5996 151.318C80.1764 151.937 79.623 152.474 78.9395 152.93C78.2559 153.385 77.4909 153.743 76.6445 154.004C75.7982 154.264 74.9681 154.395 74.1543 154.395C73.4056 154.395 72.7871 154.183 72.2988 153.76C71.8105 153.369 71.5339 152.848 71.4688 152.197C71.1758 149.04 70.834 145.898 70.4434 142.773C70.0853 139.648 69.7272 136.458 69.3691 133.203ZM44.9551 114.014C46.5827 114.014 48.1615 113.786 49.6914 113.33C51.2539 112.842 52.7676 112.012 54.2324 110.84C55.7298 109.668 57.1947 108.089 58.627 106.104C60.0592 104.085 61.4753 101.546 62.875 98.4863C62.9727 98.2259 63.054 97.9818 63.1191 97.7539C63.2168 97.526 63.2656 97.3145 63.2656 97.1191C63.2656 96.0449 62.6309 95.4102 61.3613 95.2148C60.2871 95.0195 59.0501 94.9219 57.6504 94.9219C54.9811 94.9219 52.3607 95.2799 49.7891 95.9961C47.2174 96.7122 44.9225 97.6562 42.9043 98.8281C40.8861 100 39.2585 101.335 38.0215 102.832C36.7845 104.329 36.166 105.859 36.166 107.422C36.166 109.57 36.9147 111.214 38.4121 112.354C39.9095 113.46 42.0905 114.014 44.9551 114.014Z" fill="black"/>
</svg>
