<svg width="509" height="275" viewBox="0 0 509 275" fill="none" xmlns="http://www.w3.org/2000/svg">
<path d="M432.883 118.596C432.883 118.107 433.094 117.635 433.518 117.18C433.941 116.691 434.494 116.268 435.178 115.91C435.861 115.52 436.626 115.21 437.473 114.982C438.352 114.722 439.23 114.592 440.109 114.592C440.598 114.592 441.005 114.722 441.33 114.982C441.688 115.243 441.997 115.747 442.258 116.496C442.518 117.212 442.746 118.238 442.941 119.572C443.169 120.874 443.381 122.583 443.576 124.699C443.706 125.35 443.82 125.855 443.918 126.213C444.048 126.538 444.211 126.701 444.406 126.701C444.699 126.701 444.992 126.197 445.285 125.188C447.661 118.319 451.096 114.885 455.588 114.885C457.671 114.885 459.559 115.536 461.252 116.838C462.977 118.14 464.572 120.272 466.037 123.234C467.535 126.164 468.951 130.038 470.285 134.855C471.62 139.641 472.954 145.549 474.289 152.58C474.354 152.938 474.403 153.264 474.436 153.557C474.468 153.85 474.484 154.126 474.484 154.387C474.484 155.135 474.305 155.786 473.947 156.34C473.622 156.861 473.182 157.3 472.629 157.658C472.076 157.984 471.457 158.228 470.773 158.391C470.09 158.586 469.406 158.684 468.723 158.684C467.355 158.684 466.363 158.537 465.744 158.244C465.158 157.951 464.784 157.398 464.621 156.584C463.677 151.636 462.749 147.242 461.838 143.4C460.959 139.559 460.08 136.337 459.201 133.732C458.355 131.096 457.508 129.094 456.662 127.727C455.816 126.359 454.969 125.676 454.123 125.676C453.277 125.676 452.479 126.213 451.73 127.287C451.014 128.329 450.314 129.973 449.631 132.219C448.947 134.465 448.28 137.313 447.629 140.764C447.01 144.214 446.408 148.332 445.822 153.117C445.66 154.419 445.008 155.461 443.869 156.242C442.73 157.023 441.281 157.414 439.523 157.414C438.352 157.414 437.456 157.17 436.838 156.682C436.219 156.193 435.878 155.526 435.812 154.68C435.52 147.909 435.194 142.342 434.836 137.98C434.51 133.586 434.201 130.07 433.908 127.434C433.615 124.764 433.371 122.779 433.176 121.477C432.98 120.174 432.883 119.214 432.883 118.596Z" fill="#CACACA"/>
<path d="M384.24 143.78C384.109 143.242 384.026 142.626 383.991 141.931C383.955 141.236 383.841 140.493 383.648 139.703C383.517 139.165 383.18 138.812 382.636 138.643C382.124 138.466 381.541 138.273 380.887 138.064C380.233 137.855 379.603 137.539 378.998 137.117C378.424 136.688 378.013 135.967 377.767 134.955C377.589 134.227 377.602 133.454 377.804 132.634C378.038 131.806 378.461 130.999 379.074 130.213C380.6 128.367 382.225 126.648 383.948 125.055C385.702 123.455 387.483 122.032 389.29 120.787C391.129 119.535 392.979 118.464 394.84 117.575C396.7 116.686 398.532 116.022 400.334 115.582C403.371 114.842 406.356 114.718 409.29 115.209C412.248 115.66 414.946 116.627 417.385 118.11C419.848 119.554 421.968 121.449 423.747 123.797C425.549 126.105 426.813 128.745 427.537 131.718C428.247 134.628 428.304 137.545 427.711 140.471C427.141 143.357 426.068 146.031 424.49 148.493C422.912 150.955 420.871 153.094 418.365 154.911C415.899 156.752 413.132 158.047 410.064 158.794C407.06 159.527 404.153 159.699 401.345 159.312C398.536 158.924 395.983 158.072 393.686 156.756C391.38 155.408 389.409 153.644 387.772 151.463C386.127 149.251 384.95 146.69 384.24 143.78ZM409.026 150.001C410.354 149.677 411.665 149.073 412.957 148.189C414.249 147.304 415.357 146.213 416.28 144.916C417.228 143.579 417.9 142.075 418.296 140.404C418.725 138.725 418.711 136.952 418.256 135.086C417.794 133.188 417.014 131.502 415.918 130.027C414.821 128.552 413.509 127.364 411.983 126.463C410.481 125.523 408.806 124.909 406.961 124.622C405.147 124.327 403.275 124.415 401.346 124.885C397.835 125.741 395.371 127.313 393.952 129.602C392.525 131.86 392.271 134.87 393.188 138.634C393.689 140.689 394.456 142.53 395.489 144.154C396.545 145.739 397.785 147.045 399.208 148.072C400.623 149.067 402.163 149.748 403.827 150.113C405.522 150.47 407.255 150.433 409.026 150.001Z" fill="#CACACA"/>
<path d="M355.303 111.617C357.484 111.617 359.73 111.91 362.041 112.496C364.352 113.049 366.468 113.782 368.389 114.693C370.309 115.572 371.888 116.565 373.125 117.672C374.362 118.779 374.98 119.853 374.98 120.895C374.98 121.415 374.753 122.001 374.297 122.652C373.841 123.271 373.288 123.873 372.637 124.459C371.986 125.012 371.27 125.484 370.488 125.875C369.74 126.233 369.072 126.412 368.486 126.412C367.705 126.412 366.826 126.087 365.85 125.436C364.906 124.785 363.848 124.068 362.676 123.287C361.536 122.473 360.283 121.741 358.916 121.09C357.549 120.439 356.068 120.113 354.473 120.113C353.431 120.113 352.568 120.374 351.885 120.895C351.234 121.383 350.908 122.083 350.908 122.994C350.908 123.808 351.299 124.638 352.08 125.484C352.861 126.298 353.887 127.145 355.156 128.023C356.458 128.902 357.923 129.83 359.551 130.807C361.178 131.783 362.839 132.825 364.531 133.932C366.257 135.038 367.933 136.243 369.561 137.545C371.188 138.847 372.637 140.263 373.906 141.793C375.208 143.323 376.25 144.999 377.031 146.822C377.812 148.613 378.203 150.566 378.203 152.682C378.203 154.505 377.878 156.165 377.227 157.662C376.576 159.16 375.648 160.445 374.443 161.52C373.239 162.594 371.807 163.424 370.146 164.01C368.486 164.596 366.663 164.889 364.678 164.889C362.171 164.889 359.86 164.498 357.744 163.717C355.628 162.968 353.805 161.926 352.275 160.592C350.745 159.257 349.541 157.662 348.662 155.807C347.816 153.951 347.393 151.917 347.393 149.703C347.393 146.839 347.897 144.755 348.906 143.453C349.948 142.151 351.576 141.5 353.789 141.5C355.156 141.5 356.247 141.76 357.061 142.281C357.874 142.802 358.281 143.437 358.281 144.186C358.281 144.576 358.216 144.983 358.086 145.406C357.956 145.797 357.809 146.22 357.646 146.676C357.516 147.099 357.386 147.555 357.256 148.043C357.158 148.531 357.109 149.02 357.109 149.508C357.109 150.354 357.305 151.168 357.695 151.949C358.086 152.73 358.607 153.414 359.258 154C359.941 154.618 360.723 155.107 361.602 155.465C362.48 155.823 363.408 156.002 364.385 156.002C366.989 156.002 368.291 154.928 368.291 152.779C368.291 151.087 367.624 149.492 366.289 147.994C364.954 146.464 363.278 144.983 361.26 143.551C359.242 142.086 357.061 140.621 354.717 139.156C352.406 137.691 350.241 136.161 348.223 134.566C346.204 132.971 344.528 131.279 343.193 129.488C341.859 127.665 341.191 125.696 341.191 123.58C341.191 121.822 341.549 120.211 342.266 118.746C343.014 117.281 344.023 116.028 345.293 114.986C346.562 113.912 348.044 113.082 349.736 112.496C351.462 111.91 353.317 111.617 355.303 111.617Z" fill="#CACACA"/>
<path d="M320.359 169.699C321.206 169.699 321.906 169.569 322.459 169.309C323.012 169.081 323.452 168.641 323.777 167.99C324.103 167.339 324.331 166.46 324.461 165.354C324.591 164.247 324.656 162.831 324.656 161.105C324.656 154.432 324.412 148.687 323.924 143.869C323.468 139.051 322.964 134.982 322.41 131.662C321.857 128.342 321.336 125.689 320.848 123.703C320.392 121.685 320.164 120.155 320.164 119.113C320.164 118.007 320.669 117.111 321.678 116.428C322.687 115.744 324.07 115.37 325.828 115.305C328.335 115.305 329.848 116.037 330.369 117.502C331.053 119.813 331.671 122.482 332.225 125.51C332.811 128.505 333.299 131.743 333.689 135.227C334.113 138.71 334.422 142.355 334.617 146.164C334.845 149.94 334.959 153.749 334.959 157.59C334.959 161.659 334.715 165.077 334.227 167.844C333.771 170.643 332.973 172.889 331.834 174.582C330.727 176.275 329.262 177.479 327.439 178.195C325.617 178.944 323.354 179.318 320.652 179.318C319.057 179.318 317.381 179.107 315.623 178.684C313.898 178.293 312.205 177.756 310.545 177.072C308.885 176.421 307.322 175.64 305.857 174.729C304.36 173.817 303.058 172.857 301.951 171.848C300.812 170.871 299.917 169.862 299.266 168.82C298.582 167.779 298.24 166.77 298.24 165.793C298.24 165.305 298.436 164.751 298.826 164.133C299.217 163.514 299.705 162.928 300.291 162.375C300.844 161.854 301.447 161.415 302.098 161.057C302.749 160.699 303.335 160.52 303.855 160.52C304.474 160.52 305.125 160.747 305.809 161.203C306.46 161.659 307.176 162.229 307.957 162.912C308.706 163.596 309.52 164.328 310.398 165.109C311.245 165.891 312.173 166.623 313.182 167.307C314.223 167.99 315.33 168.56 316.502 169.016C317.674 169.471 318.96 169.699 320.359 169.699ZM326.756 107.199C325.812 107.167 324.933 107.004 324.119 106.711C323.338 106.418 322.654 106.027 322.068 105.539C321.482 105.018 321.01 104.432 320.652 103.781C320.327 103.098 320.164 102.365 320.164 101.584C320.164 100.217 320.685 99.11 321.727 98.2637C322.768 97.4173 324.168 96.9941 325.926 96.9941C326.805 96.9941 327.635 97.1569 328.416 97.4824C329.23 97.7754 329.946 98.1986 330.564 98.752C331.183 99.2728 331.671 99.8913 332.029 100.607C332.387 101.291 332.566 102.023 332.566 102.805C332.566 104.204 332.062 105.295 331.053 106.076C330.044 106.825 328.611 107.199 326.756 107.199Z" fill="#CACACA"/>
<path d="M288.065 140.679C287.16 140.571 286.46 140.111 285.967 139.299C285.477 138.454 285.318 137.304 285.491 135.849C285.644 134.556 286.341 133.656 287.582 133.147C288.822 132.639 290.847 132.42 293.658 132.491C294.575 132.502 295.77 132.512 297.244 132.523C298.754 132.506 300.278 132.506 301.816 132.525C303.391 132.515 304.865 132.526 306.238 132.558C307.643 132.594 308.734 132.657 309.51 132.749C310.706 132.891 311.585 133.356 312.147 134.144C312.741 134.936 312.931 136.237 312.716 138.047C312.494 139.922 310.501 140.833 306.738 140.78C306.245 140.787 305.506 140.797 304.521 140.812C303.572 140.797 302.49 140.8 301.275 140.82C300.06 140.84 298.78 140.852 297.435 140.856C296.123 140.864 294.861 140.862 293.65 140.849C292.439 140.837 291.326 140.82 290.313 140.798C289.331 140.78 288.582 140.74 288.065 140.679Z" fill="#CACACA"/>
<path d="M254.305 160.318C252.352 160.318 250.398 159.846 248.445 158.902C246.492 157.926 244.62 156.607 242.83 154.947C241.04 153.287 239.38 151.334 237.85 149.088C236.32 146.809 234.985 144.368 233.846 141.764C232.706 139.127 231.811 136.376 231.16 133.512C230.509 130.647 230.184 127.783 230.184 124.918C230.184 122.704 230.639 121.126 231.551 120.182C232.462 119.205 233.943 118.717 235.994 118.717C238.566 118.717 239.998 119.775 240.291 121.891C240.877 126.383 241.691 130.436 242.732 134.049C243.774 137.662 244.995 140.738 246.395 143.277C247.827 145.816 249.406 147.77 251.131 149.137C252.889 150.504 254.744 151.188 256.697 151.188C258.097 151.188 259.415 150.846 260.652 150.162C261.889 149.446 262.964 148.453 263.875 147.184C264.201 146.695 264.412 146.223 264.51 145.768C264.64 145.312 264.738 144.791 264.803 144.205C264.965 141.894 265.145 139.632 265.34 137.418C265.568 135.172 265.779 132.926 265.975 130.68C266.04 129.703 266.17 128.906 266.365 128.287C266.561 127.669 266.854 127.18 267.244 126.822C267.635 126.464 268.139 126.22 268.758 126.09C269.409 125.96 270.223 125.895 271.199 125.895C272.306 125.895 273.25 126.057 274.031 126.383C274.812 126.676 275.447 127.18 275.936 127.896C276.424 128.58 276.766 129.492 276.961 130.631C277.189 131.738 277.303 133.121 277.303 134.781C277.303 136.214 277.189 137.467 276.961 138.541C276.766 139.583 276.521 140.576 276.229 141.52C275.968 142.431 275.708 143.342 275.447 144.254C275.219 145.133 275.073 146.109 275.008 147.184C274.845 149.885 274.699 152.229 274.568 154.215C274.438 156.168 274.324 157.844 274.227 159.244C274.161 160.644 274.096 161.848 274.031 162.857C273.999 163.867 273.966 164.762 273.934 165.543C273.901 166.357 273.885 167.122 273.885 167.838C273.885 168.554 273.885 169.335 273.885 170.182C273.885 171.712 273.95 173.372 274.08 175.162C274.21 176.985 274.34 178.727 274.471 180.387C274.633 182.047 274.78 183.512 274.91 184.781C275.04 186.051 275.105 186.93 275.105 187.418C275.105 188.036 274.91 188.622 274.52 189.176C274.129 189.729 273.608 190.217 272.957 190.641C272.306 191.064 271.541 191.389 270.662 191.617C269.783 191.878 268.855 192.008 267.879 192.008C267.033 192.008 266.349 191.715 265.828 191.129C265.34 190.576 265.063 189.827 264.998 188.883C264.9 187.646 264.819 186.132 264.754 184.342C264.689 182.584 264.624 180.696 264.559 178.678C264.493 176.692 264.445 174.658 264.412 172.574C264.412 170.523 264.396 168.603 264.363 166.812C264.331 165.055 264.314 163.508 264.314 162.174C264.314 160.839 264.314 159.879 264.314 159.293C264.314 158.707 264.249 158.3 264.119 158.072C263.989 157.812 263.745 157.682 263.387 157.682C263.191 157.682 262.931 157.747 262.605 157.877C262.28 157.975 261.906 158.154 261.482 158.414C260.343 159.098 259.188 159.586 258.016 159.879C256.844 160.172 255.607 160.318 254.305 160.318Z" fill="#CACACA"/>
<path d="M231.158 109.477C229.954 109.477 228.896 109.802 227.984 110.453C227.073 111.072 226.292 111.951 225.641 113.09C224.99 114.197 224.452 115.515 224.029 117.045C223.606 118.542 223.264 120.186 223.004 121.977C222.743 123.767 222.564 125.639 222.467 127.592C222.369 129.545 222.32 131.514 222.32 133.5C222.32 136.104 222.418 138.676 222.613 141.215C222.841 143.721 222.955 146.049 222.955 148.197C222.955 149.597 222.434 150.688 221.393 151.469C220.351 152.283 218.87 152.689 216.949 152.689C216.591 152.689 216.184 152.657 215.729 152.592C215.273 152.527 214.833 152.396 214.41 152.201C214.02 152.006 213.661 151.729 213.336 151.371C213.043 151.046 212.88 150.59 212.848 150.004C212.555 147.139 212.132 144.21 211.578 141.215C211.025 138.22 210.325 135.242 209.479 132.279C208.665 129.285 207.672 126.322 206.5 123.393C205.361 120.463 204.042 117.598 202.545 114.799C202.285 114.311 202.057 113.855 201.861 113.432C201.699 113.008 201.617 112.602 201.617 112.211C201.617 111.723 201.829 111.202 202.252 110.648C202.708 110.062 203.261 109.525 203.912 109.037C204.596 108.549 205.328 108.158 206.109 107.865C206.923 107.54 207.704 107.377 208.453 107.377C209.69 107.377 210.781 108.24 211.725 109.965C212.669 111.658 213.548 114.376 214.361 118.119C214.524 118.77 214.654 119.226 214.752 119.486C214.85 119.747 214.98 119.877 215.143 119.877C215.501 119.877 215.729 119.324 215.826 118.217C216.217 115.124 216.884 112.471 217.828 110.258C218.772 108.012 219.944 106.173 221.344 104.74C222.776 103.275 224.404 102.201 226.227 101.518C228.082 100.834 230.117 100.492 232.33 100.492C233.6 100.492 234.885 100.606 236.188 100.834C237.49 101.062 238.661 101.404 239.703 101.859C240.745 102.315 241.591 102.868 242.242 103.52C242.893 104.171 243.219 104.903 243.219 105.717C243.219 106.303 243.089 107.003 242.828 107.816C242.6 108.598 242.291 109.363 241.9 110.111C241.51 110.827 241.054 111.446 240.533 111.967C240.045 112.455 239.54 112.699 239.02 112.699C238.434 112.699 237.864 112.536 237.311 112.211C236.757 111.853 236.155 111.479 235.504 111.088C234.885 110.697 234.218 110.339 233.502 110.014C232.818 109.656 232.037 109.477 231.158 109.477Z" fill="#CACACA"/>
<path d="M197.775 141.307C198.719 140.493 199.647 140.086 200.559 140.086C201.079 140.086 201.551 140.216 201.975 140.477C202.398 140.737 202.87 141.144 203.391 141.697C203.879 142.446 204.221 143.064 204.416 143.553C204.644 144.008 204.758 144.464 204.758 144.92C204.758 145.896 204.27 146.824 203.293 147.703C201.73 149.005 200.038 150.177 198.215 151.219C196.392 152.228 194.488 153.09 192.502 153.807C190.516 154.523 188.465 155.06 186.35 155.418C184.234 155.809 182.134 156.004 180.051 156.004C177.414 156.004 174.94 155.662 172.629 154.979C170.318 154.327 168.251 153.383 166.428 152.146C164.637 150.91 163.124 149.428 161.887 147.703C160.65 145.945 159.771 143.976 159.25 141.795C158.957 140.883 158.68 140.298 158.42 140.037C158.192 139.744 157.801 139.598 157.248 139.598C156.044 139.598 155.116 139.305 154.465 138.719C153.814 138.133 153.488 137.286 153.488 136.18C153.488 135.724 153.521 135.431 153.586 135.301L153.684 134.324C153.846 133.152 154.156 132.306 154.611 131.785C155.1 131.264 155.848 131.004 156.857 131.004H157.59C158.957 131.004 159.917 130.369 160.471 129.1C161.48 126.854 162.766 124.803 164.328 122.947C165.891 121.092 167.648 119.513 169.602 118.211C171.555 116.876 173.638 115.851 175.852 115.135C178.098 114.386 180.376 114.012 182.688 114.012C185.096 114.012 187.342 114.37 189.426 115.086C191.542 115.77 193.381 116.73 194.943 117.967C196.506 119.204 197.727 120.652 198.605 122.312C199.517 123.973 199.973 125.763 199.973 127.684C199.973 129.018 199.712 130.239 199.191 131.346C198.671 132.452 197.922 133.429 196.945 134.275C195.969 135.089 194.781 135.757 193.381 136.277C192.014 136.798 190.451 137.14 188.693 137.303L171.75 139.012C171.099 139.012 170.562 139.174 170.139 139.5C169.748 139.826 169.553 140.265 169.553 140.818C169.553 141.665 169.862 142.479 170.48 143.26C171.132 144.041 171.978 144.741 173.02 145.359C174.094 145.945 175.314 146.417 176.682 146.775C178.081 147.133 179.514 147.312 180.979 147.312C182.378 147.312 183.811 147.182 185.275 146.922C186.773 146.629 188.238 146.222 189.67 145.701C191.135 145.18 192.551 144.562 193.918 143.846C195.285 143.097 196.571 142.251 197.775 141.307ZM186.887 128.709C187.375 128.611 187.798 128.383 188.156 128.025C188.514 127.635 188.693 127.163 188.693 126.609C188.693 126.121 188.514 125.665 188.156 125.242C187.798 124.819 187.31 124.445 186.691 124.119C186.073 123.761 185.357 123.484 184.543 123.289C183.729 123.094 182.867 122.996 181.955 122.996C180.62 122.996 179.253 123.191 177.854 123.582C176.454 123.973 175.184 124.493 174.045 125.145C172.906 125.763 171.978 126.463 171.262 127.244C170.546 127.993 170.188 128.742 170.188 129.49C170.188 130.239 170.643 130.613 171.555 130.613C172.108 130.613 173.003 130.548 174.24 130.418C175.477 130.288 176.844 130.141 178.342 129.979C179.839 129.783 181.353 129.572 182.883 129.344C184.413 129.116 185.747 128.904 186.887 128.709Z" fill="#CACACA"/>
<path d="M120.32 135.715C120.32 140.077 120.988 143.446 122.322 145.822C123.657 148.199 125.594 149.387 128.133 149.387C129.728 149.387 131.193 148.915 132.527 147.971C133.895 147.027 135.066 145.708 136.043 144.016C137.02 142.323 137.768 140.321 138.289 138.01C138.842 135.666 139.119 133.127 139.119 130.393C139.119 128.732 139.054 127.3 138.924 126.096C138.794 124.859 138.647 123.768 138.484 122.824C138.354 121.848 138.224 120.985 138.094 120.236C137.964 119.488 137.898 118.771 137.898 118.088C137.898 117.046 138.338 116.298 139.217 115.842C140.096 115.354 141.495 115.109 143.416 115.109C145.857 115.109 147.745 115.663 149.08 116.77C150.447 117.876 151.131 119.488 151.131 121.604C151.131 127.365 150.561 132.541 149.422 137.131C148.315 141.721 146.704 145.627 144.588 148.85C142.505 152.04 139.965 154.497 136.971 156.223C133.976 157.948 130.623 158.811 126.912 158.811C124.275 158.811 121.834 158.257 119.588 157.15C117.374 156.076 115.454 154.562 113.826 152.609C112.231 150.624 110.978 148.28 110.066 145.578C109.155 142.844 108.699 139.849 108.699 136.594C108.699 135.357 108.732 134.038 108.797 132.639C108.862 131.239 108.96 129.742 109.09 128.146C109.22 126.519 109.383 124.761 109.578 122.873C109.806 120.985 110.05 118.934 110.311 116.721C110.408 115.777 110.848 115.028 111.629 114.475C112.443 113.889 113.468 113.596 114.705 113.596C115.812 113.596 116.854 113.71 117.83 113.938C118.807 114.165 119.637 114.475 120.32 114.865C121.036 115.256 121.59 115.712 121.98 116.232C122.404 116.753 122.615 117.307 122.615 117.893C122.615 118.479 122.485 119.406 122.225 120.676C121.997 121.913 121.736 123.345 121.443 124.973C121.183 126.568 120.923 128.309 120.662 130.197C120.434 132.053 120.32 133.892 120.32 135.715Z" fill="#CACACA"/>
<path d="M91.3691 160.203C91.1738 158.868 90.5716 158.201 89.5625 158.201C89.2044 158.201 88.765 158.299 88.2441 158.494C87.235 158.95 86.0632 159.471 84.7285 160.057C83.3939 160.643 82.1081 161.196 80.8711 161.717C79.6341 162.27 78.5436 162.726 77.5996 163.084C76.6882 163.442 76.151 163.621 75.9883 163.621C75.5 163.621 75.0443 163.458 74.6211 163.133C74.1979 162.84 73.8236 162.449 73.498 161.961C73.2051 161.473 72.9609 160.919 72.7656 160.301C72.5703 159.682 72.4727 159.08 72.4727 158.494C72.4727 157.843 72.6029 157.241 72.8633 156.688C73.1237 156.134 73.5632 155.711 74.1816 155.418C76.3952 154.311 78.625 153.27 80.8711 152.293C83.1497 151.316 85.4447 150.356 87.7559 149.412C88.9603 148.924 89.5625 148.012 89.5625 146.678L88.8789 139.5C88.6836 138.23 88.2116 137.596 87.4629 137.596C86.9421 137.596 86.3724 138.003 85.7539 138.816C82.7266 142.723 79.4876 145.587 76.0371 147.41C72.6191 149.201 68.8919 150.096 64.8555 150.096C62.4466 150.096 60.2168 149.754 58.166 149.07C56.1478 148.387 54.4062 147.443 52.9414 146.238C51.4766 145.034 50.321 143.602 49.4746 141.941C48.6608 140.249 48.2539 138.41 48.2539 136.424C48.2539 134.21 48.7096 132.094 49.6211 130.076C50.5326 128.058 51.7695 126.186 53.332 124.461C54.8945 122.736 56.7012 121.173 58.752 119.773C60.8353 118.341 63.0163 117.12 65.2949 116.111C67.6061 115.102 69.9499 114.337 72.3262 113.816C74.735 113.263 77.0462 112.986 79.2598 112.986C81.6035 112.986 83.5729 113.117 85.168 113.377C86.7956 113.637 88.1302 113.914 89.1719 114.207C89.6276 113.654 90.0833 113.247 90.5391 112.986C91.0273 112.726 91.4993 112.596 91.9551 112.596C92.5736 112.596 93.2246 112.71 93.9082 112.938C94.6243 113.133 95.2754 113.41 95.8613 113.768C96.4798 114.126 96.9844 114.533 97.375 114.988C97.7656 115.444 97.9609 115.916 97.9609 116.404C97.9609 116.762 97.8958 117.104 97.7656 117.43C97.6354 117.755 97.4889 118.081 97.3262 118.406C97.196 118.699 97.0658 119.025 96.9355 119.383C96.8379 119.741 96.7891 120.115 96.7891 120.506C96.7891 121.287 96.8542 122.475 96.9844 124.07C97.1471 125.665 97.3424 127.488 97.5703 129.539C97.8307 131.557 98.0911 133.689 98.3516 135.936C98.6445 138.182 98.9212 140.33 99.1816 142.381C99.377 143.781 100.044 144.48 101.184 144.48C101.281 144.48 101.411 144.464 101.574 144.432C101.737 144.399 101.9 144.35 102.062 144.285C103.332 143.927 104.65 143.569 106.018 143.211C107.385 142.82 108.654 142.479 109.826 142.186C111.031 141.893 112.056 141.665 112.902 141.502C113.749 141.307 114.302 141.209 114.562 141.209C115.604 141.209 116.385 141.583 116.906 142.332C117.427 143.081 117.688 144.106 117.688 145.408C117.688 146.417 117.508 147.361 117.15 148.24C116.792 149.119 116.271 149.64 115.588 149.803C113.342 150.291 111.161 150.828 109.045 151.414C106.929 151.967 104.797 152.57 102.648 153.221C101.379 153.611 100.744 154.441 100.744 155.711L103.283 176.316C103.283 177.033 103.055 177.7 102.6 178.318C102.176 178.937 101.623 179.474 100.939 179.93C100.256 180.385 99.4909 180.743 98.6445 181.004C97.7982 181.264 96.9681 181.395 96.1543 181.395C95.4056 181.395 94.7871 181.183 94.2988 180.76C93.8105 180.369 93.5339 179.848 93.4688 179.197C93.1758 176.04 92.834 172.898 92.4434 169.773C92.0853 166.648 91.7272 163.458 91.3691 160.203ZM66.9551 141.014C68.5827 141.014 70.1615 140.786 71.6914 140.33C73.2539 139.842 74.7676 139.012 76.2324 137.84C77.7298 136.668 79.1947 135.089 80.627 133.104C82.0592 131.085 83.4753 128.546 84.875 125.486C84.9727 125.226 85.054 124.982 85.1191 124.754C85.2168 124.526 85.2656 124.314 85.2656 124.119C85.2656 123.045 84.6309 122.41 83.3613 122.215C82.2871 122.02 81.0501 121.922 79.6504 121.922C76.9811 121.922 74.3607 122.28 71.7891 122.996C69.2174 123.712 66.9225 124.656 64.9043 125.828C62.8861 127 61.2585 128.335 60.0215 129.832C58.7845 131.329 58.166 132.859 58.166 134.422C58.166 136.57 58.9147 138.214 60.4121 139.354C61.9095 140.46 64.0905 141.014 66.9551 141.014Z" fill="black"/>
</svg>
