<svg width="1397" height="229" viewBox="0 0 1397 229" fill="none" xmlns="http://www.w3.org/2000/svg">
<path d="M85.2263 158.44H83.5463C80.3463 165.96 75.8663 172.12 70.1063 176.92C64.5063 181.56 56.7463 183.88 46.8263 183.88C39.9463 183.88 33.6263 182.6 27.8663 180.04C22.2663 177.48 17.3863 173.56 13.2263 168.28C9.22625 163 6.02625 156.28 3.62625 148.12C1.38625 139.96 0.26625 130.28 0.26625 119.08C0.26625 107.88 1.38625 98.2 3.62625 90.04C6.02625 81.88 9.22625 75.16 13.2263 69.88C17.3863 64.6 22.2663 60.68 27.8663 58.12C33.6263 55.56 39.9463 54.28 46.8263 54.28C51.7863 54.28 56.1863 54.92 60.0263 56.2C63.8663 57.48 67.2263 59.24 70.1063 61.48C73.1463 63.72 75.7063 66.44 77.7863 69.64C80.0263 72.68 81.9463 76.04 83.5463 79.72H85.2263V57.16H120.746V229H85.2263V158.44ZM62.1863 156.28C68.4263 156.28 73.7863 154.76 78.2663 151.72C82.9063 148.68 85.2263 143.88 85.2263 137.32V100.84C85.2263 94.28 82.9063 89.48 78.2663 86.44C73.7863 83.4 68.4263 81.88 62.1863 81.88C54.1863 81.88 48.0263 84.36 43.7063 89.32C39.3863 94.12 37.2263 100.84 37.2263 109.48V128.68C37.2263 137.32 39.3863 144.12 43.7063 149.08C48.0263 153.88 54.1863 156.28 62.1863 156.28ZM227.693 158.44H226.253C223.533 165.48 219.213 171.48 213.293 176.44C207.533 181.4 199.693 183.88 189.773 183.88C183.853 183.88 178.413 182.92 173.453 181C168.493 178.92 164.253 175.88 160.733 171.88C157.213 167.88 154.413 163 152.333 157.24C150.413 151.48 149.453 144.84 149.453 137.32V57.16H184.973V132.52C184.973 148.52 191.933 156.52 205.853 156.52C208.573 156.52 211.213 156.2 213.773 155.56C216.493 154.76 218.813 153.64 220.733 152.2C222.813 150.6 224.493 148.68 225.773 146.44C227.053 144.2 227.693 141.56 227.693 138.52V57.16H263.213V181H227.693V158.44ZM354.079 183.88C333.279 183.88 317.519 178.12 306.799 166.6C296.079 155.08 290.719 139.4 290.719 119.56C290.719 109.48 292.079 100.44 294.799 92.44C297.679 84.28 301.679 77.4 306.799 71.8C312.079 66.04 318.399 61.72 325.759 58.84C333.279 55.8 341.679 54.28 350.959 54.28C360.239 54.28 368.559 55.8 375.919 58.84C383.279 61.72 389.519 65.88 394.639 71.32C399.759 76.76 403.679 83.4 406.399 91.24C409.279 98.92 410.719 107.56 410.719 117.16V127.72H325.999V129.88C325.999 137.88 328.479 144.36 333.439 149.32C338.399 154.12 345.679 156.52 355.279 156.52C362.639 156.52 368.959 155.16 374.239 152.44C379.519 149.56 384.079 145.8 387.919 141.16L407.119 162.04C402.319 167.96 395.599 173.08 386.959 177.4C378.319 181.72 367.359 183.88 354.079 183.88ZM351.199 79.72C343.519 79.72 337.359 82.12 332.719 86.92C328.239 91.56 325.999 97.88 325.999 105.88V107.8H375.919V105.88C375.919 97.72 373.679 91.32 369.199 86.68C364.879 82.04 358.879 79.72 351.199 79.72ZM440.385 153.4H468.945V84.76H440.385V57.16H504.465V92.2H506.145C507.265 87.72 508.785 83.4 510.705 79.24C512.785 74.92 515.345 71.16 518.385 67.96C521.585 64.6 525.425 61.96 529.905 60.04C534.385 58.12 539.665 57.16 545.745 57.16H557.505V89.8H531.105C522.305 89.8 515.665 92.44 511.185 97.72C506.705 102.84 504.465 109.16 504.465 116.68V153.4H545.265V181H440.385V153.4ZM669.731 57.16H705.971L647.651 200.92C643.971 210.04 639.091 217 633.011 221.8C626.931 226.6 618.611 229 608.051 229H583.571V201.4H613.331L621.011 180.28L571.091 57.16H609.251L627.251 109.24L638.531 145.24H640.451L651.251 109.24L669.731 57.16ZM746.198 121V94.84H818.678V121H746.198ZM857.224 201.4H904.744V84.76H856.744V57.16H940.264V193.24C940.264 203.64 937.144 212.2 930.904 218.92C924.664 225.64 915.224 229 902.584 229H857.224V201.4ZM922.504 41.32C914.504 41.32 908.904 39.72 905.704 36.52C902.664 33.16 901.144 29.16 901.144 24.52V17.56C901.144 12.76 902.664 8.76 905.704 5.56C908.904 2.35999 914.504 0.759989 922.504 0.759989C930.344 0.759989 935.864 2.35999 939.064 5.56C942.264 8.76 943.864 12.76 943.864 17.56V24.52C943.864 29.16 942.264 33.16 939.064 36.52C935.864 39.72 930.344 41.32 922.504 41.32ZM1049.61 183.88C1035.85 183.88 1023.85 181.8 1013.61 177.64C1003.53 173.48 995.93 167.8 990.81 160.6L1010.73 142.12C1015.53 147.4 1021.13 151.56 1027.53 154.6C1034.09 157.48 1041.53 158.92 1049.85 158.92C1056.89 158.92 1062.41 157.88 1066.41 155.8C1070.41 153.56 1072.41 150.2 1072.41 145.72C1072.41 142.2 1071.05 139.8 1068.33 138.52C1065.61 137.08 1061.85 135.96 1057.05 135.16L1037.13 132.04C1031.53 131.24 1026.33 130.04 1021.53 128.44C1016.73 126.68 1012.57 124.36 1009.05 121.48C1005.53 118.6 1002.73 115.08 1000.65 110.92C998.57 106.76 997.53 101.72 997.53 95.8C997.53 82.84 1002.49 72.68 1012.41 65.32C1022.33 57.96 1036.25 54.28 1054.17 54.28C1066.33 54.28 1076.65 55.96 1085.13 59.32C1093.77 62.52 1100.65 67.16 1105.77 73.24L1088.01 93.4C1084.33 89.4 1079.61 86.04 1073.85 83.32C1068.09 80.6 1061.13 79.24 1052.97 79.24C1039.21 79.24 1032.33 83.4 1032.33 91.72C1032.33 95.4 1033.69 97.96 1036.41 99.4C1039.13 100.68 1042.89 101.72 1047.69 102.52L1067.37 105.64C1072.97 106.44 1078.17 107.72 1082.97 109.48C1087.77 111.08 1091.93 113.32 1095.45 116.2C1099.13 119.08 1102.01 122.6 1104.09 126.76C1106.17 130.92 1107.21 135.96 1107.21 141.88C1107.21 154.84 1102.17 165.08 1092.09 172.6C1082.17 180.12 1068.01 183.88 1049.61 183.88ZM1194.96 183.88C1185.36 183.88 1176.72 182.44 1169.04 179.56C1161.36 176.52 1154.8 172.2 1149.36 166.6C1144.08 161 1140 154.2 1137.12 146.2C1134.24 138.2 1132.8 129.16 1132.8 119.08C1132.8 109 1134.24 99.96 1137.12 91.96C1140 83.96 1144.08 77.16 1149.36 71.56C1154.8 65.96 1161.36 61.72 1169.04 58.84C1176.72 55.8 1185.36 54.28 1194.96 54.28C1204.56 54.28 1213.2 55.8 1220.88 58.84C1228.56 61.72 1235.04 65.96 1240.32 71.56C1245.76 77.16 1249.92 83.96 1252.8 91.96C1255.68 99.96 1257.12 109 1257.12 119.08C1257.12 129.16 1255.68 138.2 1252.8 146.2C1249.92 154.2 1245.76 161 1240.32 166.6C1235.04 172.2 1228.56 176.52 1220.88 179.56C1213.2 182.44 1204.56 183.88 1194.96 183.88ZM1194.96 157.48C1202.96 157.48 1209.2 155 1213.68 150.04C1218.16 145.08 1220.4 138.04 1220.4 128.92V109.24C1220.4 100.12 1218.16 93.08 1213.68 88.12C1209.2 83.16 1202.96 80.68 1194.96 80.68C1186.96 80.68 1180.72 83.16 1176.24 88.12C1171.76 93.08 1169.52 100.12 1169.52 109.24V128.92C1169.52 138.04 1171.76 145.08 1176.24 150.04C1180.72 155 1186.96 157.48 1194.96 157.48ZM1282.46 181V57.16H1317.98V79.72H1319.42C1320.86 76.2 1322.62 72.92 1324.7 69.88C1326.78 66.84 1329.26 64.2 1332.14 61.96C1335.18 59.56 1338.62 57.72 1342.46 56.44C1346.46 55 1350.94 54.28 1355.9 54.28C1361.82 54.28 1367.26 55.32 1372.22 57.4C1377.18 59.32 1381.42 62.28 1384.94 66.28C1388.46 70.28 1391.18 75.16 1393.1 80.92C1395.18 86.68 1396.22 93.32 1396.22 100.84V181H1360.7V105.64C1360.7 89.64 1353.74 81.64 1339.82 81.64C1337.1 81.64 1334.38 82.04 1331.66 82.84C1329.1 83.48 1326.78 84.6 1324.7 86.2C1322.62 87.64 1320.94 89.48 1319.66 91.72C1318.54 93.96 1317.98 96.6 1317.98 99.64V181H1282.46Z" fill="white"/>
</svg>
